<svg id="Capa_1" data-name="Capa 1" xmlns="http://www.w3.org/2000/svg" viewBox="0 0 299.89 85.31" height="32" width="99"><defs><style>.cls-1{fill:#e52421}</style></defs><path class="cls-1" d="M124 36.8a10.92 10.92 0 1 0 10.91 10.92A10.93 10.93 0 0 0 124 36.8zm0 15.73a4.81 4.81 0 1 1 4.81-4.81 4.82 4.82 0 0 1-4.81 4.81zm24.77-15.21h-2.98v-6.44h-6.53v6.44h-2.97v5.91h2.97v14.88h6.53V43.23h2.98v-5.91zm2.99 0h6.52v20.79h-6.52zM155 27.25a3.64 3.64 0 1 0 3.64 3.63 3.64 3.64 0 0 0-3.64-3.63zm93.58 15.67a3.89 3.89 0 0 1 3.88 3.89v11.3H259V45.92c0-5.54-3.2-9.12-8.24-9.12-2.07 0-4.26.91-6.06 3.82v-3.3h-6.52v20.79h6.52v-11.3a3.89 3.89 0 0 1 3.88-3.89zm34.18 15.19l-8.01-10.38 7.45-10.41h-7.63l-5.99 8.41V27.77h-6.52v30.34h6.52v-8.57l6.58 8.57h7.6zM90.58 52.52a9.48 9.48 0 0 0 .67-3.83 7.76 7.76 0 0 0-1.85-5.28c-1.4-1.53-3.78-2.8-7.08-3.77a11.07 11.07 0 0 1-1.85-.7 4.4 4.4 0 0 1-1.39-1 2.35 2.35 0 0 1-.59-1.69 2.47 2.47 0 0 1 1.36-2.15c1.05-.66 3.08-.73 5.15 0a12.19 12.19 0 0 1 2.11 1l2.77-5.52a15.35 15.35 0 0 0-4-1.79 17.64 17.64 0 0 0-4.43-.56 11.94 11.94 0 0 0-4.14.68A9.39 9.39 0 0 0 74.17 30a9.84 9.84 0 0 0-2.11 3.16 10.22 10.22 0 0 0-.7 3.84 8.09 8.09 0 0 0 2.46 5.51 13.4 13.4 0 0 0 4.92 2.75c.86.33 1.82.62 2.43.86A9 9 0 0 1 83 47a3 3 0 0 1 1 1.06 2.29 2.29 0 0 1 .2 1.32 2.69 2.69 0 0 1-.93 1.8 4.4 4.4 0 0 1-3 .82 9 9 0 0 1-3.64-.87 25.27 25.27 0 0 1-3-1.57l-3.26 5.68a14.84 14.84 0 0 0 9.25 3.37 15.94 15.94 0 0 0 4.92-.78 11.31 11.31 0 0 0 3.72-2.09 9.6 9.6 0 0 0 2.32-3.22zm196.78-1.67a3.63 3.63 0 1 0 3.64 3.63 3.63 3.63 0 0 0-3.64-3.63zm0 6.53a2.9 2.9 0 1 1 2.9-2.9 2.9 2.9 0 0 1-2.9 2.9z"/><path class="cls-1" d="M287.35 55.09h-.58v1.37h-.72v-4h1.52a1.29 1.29 0 0 1 .56 2.47l.83 1.49h-.86zm-.58-.67h.83a.58.58 0 0 0 .56-.61.58.58 0 0 0-.56-.6h-.83zm-178.33-3.69a4.81 4.81 0 1 1 0-6l4.33-4.32a10.88 10.88 0 0 0-8.07-3.58c-6 0-11.26 4.29-11.26 10.92s5.24 10.91 11.26 10.91a10.91 10.91 0 0 0 8.07-3.57zm75.36 7.38V37.32h-6.36v2.19l-.59-.53a8 8 0 0 0-5.47-2.18c-5.62 0-10.36 5-10.36 10.92s4.74 10.91 10.36 10.91a7.9 7.9 0 0 0 5.47-2.18l.59-.52v2.18zm-11.41-5.48a4.91 4.91 0 1 1 4.91-4.91 4.91 4.91 0 0 1-4.91 4.91zM235 58.11V37.32h-6.36v2.19l-.59-.53a8 8 0 0 0-5.47-2.18c-5.61 0-10.36 5-10.36 10.92s4.78 10.91 10.4 10.91a7.9 7.9 0 0 0 5.47-2.18l.59-.52v2.18zm-11.41-5.48a4.91 4.91 0 1 1 4.91-4.91 4.91 4.91 0 0 1-4.87 4.91zm-30.06 5.48v-2.18l.59.52a7.94 7.94 0 0 0 5.48 2.18c5.61 0 10.35-5 10.35-10.91S205.21 36.8 199.6 36.8a8 8 0 0 0-5.48 2.2l-.59.53V27.77h-6.35v30.34zm.15-10.39a4.91 4.91 0 1 1 4.91 4.91 4.91 4.91 0 0 1-4.91-4.91zM45.56 27H31.43a15.66 15.66 0 0 0-15.56 13.92 15.66 15.66 0 0 1 13.71-23.23H54zM17.3 58.31h14.13A15.66 15.66 0 0 0 47 44.4a15.65 15.65 0 0 1-13.71 23.22H8.9z"/><circle class="cls-1" cx="31.43" cy="42.66" r="12.58"/></svg>