<svg width="72" height="32" viewBox="0 0 360 160" fill="none" xmlns="http://www.w3.org/2000/svg"><path d="M12.484 79.946c0 4.883 1.094 9.518 3.01 13.676l30.457-46.418c-18.428 0-33.467 14.661-33.467 32.742zm13.334 26.217a33.813 33.813 0 0020.133 6.633 34.01 34.01 0 0020.223-6.615L45.942 76.319l-20.124 29.844z" fill="#C3002F"/><path d="M45.95 47.204l30.56 46.422a32.38 32.38 0 003.033-13.68c0-18.08-15.04-32.742-33.593-32.742z" fill="#C3002F"/><path d="M15.492 93.622a33.258 33.258 0 0010.323 12.541L45.94 76.319l20.232 29.862a32.94 32.94 0 0010.337-12.555l-30.56-46.422-30.456 46.418z" fill="#FFFFFE"/><path d="M45.95 35C20.631 35 0 55.187 0 79.946 0 104.809 20.633 125 45.95 125c25.343 0 46.08-20.191 46.08-45.054C92.03 55.187 71.293 35 45.95 35zm30.559 58.626a32.941 32.941 0 01-10.337 12.555 34.017 34.017 0 01-20.222 6.615 33.813 33.813 0 01-20.134-6.633 33.333 33.333 0 01-10.322-12.541 32.601 32.601 0 01-3.011-13.676c0-18.085 15.039-32.742 33.466-32.742 18.554 0 33.593 14.661 33.593 32.742 0 4.727-1.035 9.396-3.033 13.68z" fill="#002856"/><path d="M227.085 62.153a8.249 8.249 0 008.199-8.253 8.229 8.229 0 00-16.457 0 8.28 8.28 0 008.258 8.253z" fill="#C3002F"/><path d="M211.333 105.083h13.136l7.798-38.515h-12.91l-8.024 38.515zm-70.713-54.95s-5.247-.085-7.384 4.015c-2.142 4.081-26.82 50.935-26.82 50.935h15.714l7.006-14.296 15.62.054 1.269 14.202 15.241.009-6.84-54.918H140.62zm-6.813 29.75l8.604-18.256 1.652 18.256h-10.256zm70.169-13.567c-2.003-1.03-9.072-4.14-18.149 2.034l4.221-18.288H175.86l-8.267 39.492s-2.605 10.156 4.716 14.238c7.322 4.09 19.017.967 21.731-.212 2.713-1.201 11.754-4.653 15.408-17.6 3.672-12.995-3.479-18.66-5.472-19.664zm-10.035 22.666c-2.502 4.604-5.517 6.048-7.043 6.48-1.593.446-3.429.383-4.549-.68-1.085-1.061-1.161-3.581-.81-5.386 0 0 .963-4.54 1.971-7.258 1.035-2.723 3.564-5.787 6.003-6.372 2.425-.585 6.426-1.098 6.592 4.963-.004-.004.347 3.64-2.164 8.253zm61.434-13.378h8.743l1.899-9.04-8.955.013 3.213-14.45h-4.711c-6.228 0-8.816 2.808-9.869 7.907l-1.372 6.53h-6.039l-1.886 9.04h6.017l-4.059 19.629s-1.625 7.281 6.489 9.697c0 0 4.63 1.368 11.893-.207l2.16-10.021s-2.979.882-4.981-.059c-1.98-1.003-1.913-3.42-1.517-5.4.419-1.953 2.975-13.64 2.975-13.64zm26.991-8.613c-13.185 4.644-17.069 17.87-17.348 23.503-.292 5.616 1.697 12.911 9.617 14.72 7.924 1.795 14.143-3.177 16.699-6.921l.023.099v6.678h11.502v-.333s.054-6.921 1.134-15.089l4.923-22.63c-.009 0-13.365-4.734-26.55-.027zm9.436 18.45c-.477 2.133-2.038 4.923-3.114 6.484-1.08 1.526-3.847 4.572-7.128 3.479-3.285-1.067-3.037-6.552-2.371-9.365.666-2.767 2.938-8.06 7.119-10.174 4.167-2.138 7.816-1.103 7.816-1.103s-1.795 8.546-2.322 10.679zm55.877-19.161c-1.994-1.022-9.41-4.064-18.549 2.146l4.428-18.355-14.216-.01-8.046 39.461s-2.614 10.148 4.698 14.238c7.308 4.1 19.004.972 21.735-.207 2.732-1.201 11.768-4.63 15.422-17.6 3.64-13-3.488-18.674-5.472-19.673zm-10.04 22.657c-2.52 4.613-5.503 6.084-7.092 6.498-1.534.45-3.433.383-4.527-.688-1.084-1.062-1.134-3.573-.792-5.396 0 0 .968-4.54 1.994-7.245 1.021-2.722 3.541-5.769 5.98-6.38 2.439-.572 6.386-1.08 6.593 4.958.004-.004.346 3.65-2.156 8.253z" fill="#002856"/></svg>