<svg xmlns="http://www.w3.org/2000/svg" xmlns:xlink="http://www.w3.org/1999/xlink" viewBox="0 0 574.38 400.2"><defs><style>.cls-1{isolation:isolate;}.cls-12,.cls-13,.cls-14,.cls-15,.cls-17,.cls-2,.cls-30,.cls-31,.cls-36,.cls-50,.cls-52,.cls-53{mix-blend-mode:overlay;}.cls-2{opacity:0.5;}.cls-3{fill:#f3acfe;}.cls-4,.cls-56,.cls-8{fill:#a266de;}.cls-29,.cls-4,.cls-55,.cls-8{mix-blend-mode:multiply;}.cls-29,.cls-4,.cls-55{opacity:0.3;}.cls-5{fill:#fff;}.cls-6{fill:url(#linear-gradient);}.cls-7{fill:#dfcbfa;}.cls-8{opacity:0.1;}.cls-9{fill:url(#linear-gradient-2);}.cls-10{fill:#ffccef;}.cls-11{fill:url(#linear-gradient-3);}.cls-12{fill:url(#linear-gradient-4);}.cls-13{fill:url(#linear-gradient-5);}.cls-14{fill:url(#linear-gradient-6);}.cls-15{fill:url(#linear-gradient-7);}.cls-16{fill:url(#linear-gradient-8);}.cls-17{fill:url(#linear-gradient-9);}.cls-18{fill:#103450;}.cls-19{fill:#ffc000;}.cls-20{fill:#f9fcff;}.cls-21{fill:#ffc6a0;}.cls-22{fill:url(#linear-gradient-10);}.cls-23{fill:url(#linear-gradient-11);}.cls-24{fill:url(#linear-gradient-12);}.cls-25{fill:url(#linear-gradient-13);}.cls-26{fill:url(#linear-gradient-14);}.cls-27{fill:url(#linear-gradient-15);}.cls-28,.cls-51{mix-blend-mode:screen;}.cls-28{opacity:0.7;}.cls-29{fill:#3466de;}.cls-30{fill:url(#linear-gradient-16);}.cls-31{fill:url(#linear-gradient-17);}.cls-32{fill:url(#linear-gradient-18);}.cls-33{fill:url(#linear-gradient-19);}.cls-34{fill:url(#linear-gradient-20);}.cls-35{fill:url(#linear-gradient-21);}.cls-36{fill:url(#linear-gradient-22);}.cls-37{fill:url(#linear-gradient-23);}.cls-38{fill:url(#linear-gradient-24);}.cls-39{fill:#fcfefb;}.cls-40{fill:#011c63;}.cls-41{fill:#f5effd;}.cls-42{fill:url(#linear-gradient-25);}.cls-43{fill:url(#linear-gradient-26);}.cls-44{fill:url(#linear-gradient-27);}.cls-45{fill:url(#linear-gradient-28);}.cls-46{fill:url(#linear-gradient-29);}.cls-47{fill:url(#linear-gradient-30);}.cls-48{fill:url(#linear-gradient-31);}.cls-49{fill:url(#linear-gradient-32);}.cls-50{fill:url(#linear-gradient-33);}.cls-51{fill:#f87cca;opacity:0.6;}.cls-52{fill:url(#linear-gradient-34);}.cls-53{fill:url(#linear-gradient-35);}.cls-54{fill:url(#linear-gradient-36);}.cls-57{fill:url(#linear-gradient-37);}.cls-58{fill:url(#linear-gradient-38);}.cls-59{fill:url(#linear-gradient-39);}.cls-60{fill:url(#linear-gradient-40);}</style><linearGradient id="linear-gradient" x1="264.51" y1="55.7" x2="297.76" y2="154.86" gradientUnits="userSpaceOnUse"><stop offset="0" stop-color="#fff"/><stop offset="0.27" stop-color="#fcfbff"/><stop offset="0.56" stop-color="#f4edfd"/><stop offset="0.86" stop-color="#e7d7fb"/><stop offset="1" stop-color="#dfcbfa"/></linearGradient><linearGradient id="linear-gradient-2" x1="275.89" y1="87.72" x2="277.03" y2="11.67" gradientUnits="userSpaceOnUse"><stop offset="0" stop-color="#f87cca"/><stop offset="0.03" stop-color="#f87cca" stop-opacity="0.97"/><stop offset="0.39" stop-color="#f97cca" stop-opacity="0.56"/><stop offset="0.69" stop-color="#f97ccb" stop-opacity="0.26"/><stop offset="0.9" stop-color="#fa7ccb" stop-opacity="0.07"/><stop offset="1" stop-color="#fa7ccb" stop-opacity="0"/></linearGradient><linearGradient id="linear-gradient-3" x1="248.04" y1="79.55" x2="305.09" y2="79.55" xlink:href="#linear-gradient-2"/><linearGradient id="linear-gradient-4" x1="279.5" y1="-3.57" x2="279.07" y2="49.37" gradientUnits="userSpaceOnUse"><stop offset="0" stop-color="#fbcfed"/><stop offset="0.04" stop-color="#fbcbec" stop-opacity="0.96"/><stop offset="0.38" stop-color="#f9aade" stop-opacity="0.55"/><stop offset="0.66" stop-color="#f791d4" stop-opacity="0.25"/><stop offset="0.86" stop-color="#f682ce" stop-opacity="0.07"/><stop offset="0.96" stop-color="#f67ccc" stop-opacity="0"/></linearGradient><linearGradient id="linear-gradient-5" x1="267.61" y1="34.51" x2="269.78" y2="118.69" xlink:href="#linear-gradient-4"/><linearGradient id="linear-gradient-6" x1="253.96" y1="34.87" x2="256.13" y2="119.05" xlink:href="#linear-gradient-4"/><linearGradient id="linear-gradient-7" x1="253.21" y1="32.63" x2="275.63" y2="77.48" xlink:href="#linear-gradient-4"/><linearGradient id="linear-gradient-8" x1="210.97" y1="165.79" x2="225.25" y2="205.16" xlink:href="#linear-gradient"/><linearGradient id="linear-gradient-9" x1="229.04" y1="116.7" x2="202.6" y2="181.33" xlink:href="#linear-gradient-4"/><linearGradient id="linear-gradient-10" x1="463.96" y1="94.97" x2="498.88" y2="216.83" xlink:href="#linear-gradient"/><linearGradient id="linear-gradient-11" x1="418.39" y1="161.7" x2="423.25" y2="202.78" xlink:href="#linear-gradient"/><linearGradient id="linear-gradient-12" x1="401.8" y1="181.83" x2="411.28" y2="224.62" xlink:href="#linear-gradient"/><linearGradient id="linear-gradient-13" x1="481.56" y1="75.29" x2="474.1" y2="126.04" xlink:href="#linear-gradient"/><linearGradient id="linear-gradient-14" x1="510.05" y1="128.71" x2="505.59" y2="147.06" xlink:href="#linear-gradient"/><linearGradient id="linear-gradient-15" x1="439.48" y1="135.98" x2="434.32" y2="149" xlink:href="#linear-gradient"/><linearGradient id="linear-gradient-16" x1="485.32" y1="16.62" x2="485.32" y2="119.7" xlink:href="#linear-gradient-4"/><linearGradient id="linear-gradient-17" x1="524.57" y1="16.62" x2="524.57" y2="119.7" xlink:href="#linear-gradient-4"/><linearGradient id="linear-gradient-18" x1="89.15" y1="156" x2="91.21" y2="263.83" xlink:href="#linear-gradient"/><linearGradient id="linear-gradient-19" x1="146" y1="222.63" x2="145.52" y2="273.43" xlink:href="#linear-gradient"/><linearGradient id="linear-gradient-20" x1="68.17" y1="169.72" x2="67.76" y2="212.59" xlink:href="#linear-gradient"/><linearGradient id="linear-gradient-21" x1="161.08" y1="239.18" x2="159.87" y2="288.77" xlink:href="#linear-gradient"/><linearGradient id="linear-gradient-22" x1="45.31" y1="97.79" x2="64.59" y2="195.68" xlink:href="#linear-gradient-4"/><linearGradient id="linear-gradient-23" x1="126.88" y1="35.22" x2="53.05" y2="156.6" xlink:href="#linear-gradient"/><linearGradient id="linear-gradient-24" x1="284.08" y1="107.28" x2="287.06" y2="386.42" xlink:href="#linear-gradient"/><linearGradient id="linear-gradient-25" x1="505.8" y1="219.22" x2="522.57" y2="265.44" xlink:href="#linear-gradient"/><linearGradient id="linear-gradient-26" x1="498.6" y1="238.27" x2="526.1" y2="238.27" xlink:href="#linear-gradient"/><linearGradient id="linear-gradient-27" x1="498.6" y1="234.16" x2="526.1" y2="234.16" xlink:href="#linear-gradient"/><linearGradient id="linear-gradient-28" x1="498.6" y1="230.05" x2="526.1" y2="230.05" xlink:href="#linear-gradient"/><linearGradient id="linear-gradient-29" x1="498.6" y1="225.95" x2="526.1" y2="225.95" xlink:href="#linear-gradient"/><linearGradient id="linear-gradient-30" x1="498.6" y1="221.84" x2="526.1" y2="221.84" xlink:href="#linear-gradient"/><linearGradient id="linear-gradient-31" x1="497.66" y1="216.44" x2="525.16" y2="216.44" xlink:href="#linear-gradient"/><linearGradient id="linear-gradient-32" x1="444.49" y1="279.73" x2="472.23" y2="356.22" xlink:href="#linear-gradient"/><linearGradient id="linear-gradient-33" x1="476.48" y1="270.55" x2="493.04" y2="332.27" xlink:href="#linear-gradient-4"/><linearGradient id="linear-gradient-34" x1="443.79" y1="279.16" x2="445.63" y2="312.42" xlink:href="#linear-gradient-4"/><linearGradient id="linear-gradient-35" x1="453.29" y1="326.15" x2="488.87" y2="326.15" xlink:href="#linear-gradient-4"/><linearGradient id="linear-gradient-36" x1="338.25" y1="113.14" x2="351.66" y2="139.96" xlink:href="#linear-gradient"/><linearGradient id="linear-gradient-37" x1="50.6" y1="351.79" x2="78.1" y2="351.79" xlink:href="#linear-gradient"/><linearGradient id="linear-gradient-38" x1="49.5" y1="345.62" x2="76.99" y2="345.62" xlink:href="#linear-gradient"/><linearGradient id="linear-gradient-39" x1="83.25" y1="356.83" x2="110.75" y2="356.83" xlink:href="#linear-gradient"/><linearGradient id="linear-gradient-40" x1="546.89" y1="315.3" x2="574.38" y2="315.3" xlink:href="#linear-gradient"/></defs><g class="cls-1"><g id="Layer_2" data-name="Layer 2"><g id="OBJECTS"><g class="cls-2"><path class="cls-3" d="M324.27,355.59l38.15,22,.25.15,38.17-22.18-38.41-22.17Zm74.57,0-36.17,21-36.41-21,36.17-21Z"/><path class="cls-3" d="M89.84,214,0,266.18l90.43,52.21,89.84-52.21Zm.58,103.6-89-51.39,88.43-51.39,89,51.39Z"/><path class="cls-3" d="M433.05,318.84l-30.51-17.62,55.85-32.45-130.78-75.5-53.41,31L236.94,202.8l18.24-10.6L216.77,170l-38.16,22.18,38.15,22,.25.15,19.1-11.1,37.26,21.52L101.45,324.7l130.77,75.5,169.33-98.4,30.51,17.62-39.62,23,66,38.1L524,342.45l-66-38.11ZM217,213.45,180.2,192.2,216.77,171l36.81,21.26ZM103,324.7l171.14-99.46,17.18,9.92.42-.72L275,224.76l52.64-30.59,129.23,74.6L232.22,399.31Zm419.58,17.74-64.16,37.29-64.57-37.28L458,305.16Z"/><path class="cls-3" d="M567.57,234.46l-43.21-26.23,42-24.41-90.43-52.21-89.84,52.21L476.52,236l47.12-27.38,42.52,25.82-33.81,20.65L513.7,244.36l-46.15,26.82L514,298l46.15-26.82-27.07-15.64Zm-91.06.75-89-51.39,88.43-51.39,89,51.39Zm82.22,36-44.73,26-45-26,44.74-26L532,255.75l.2.32.17-.1Z"/><path class="cls-3" d="M232.86,178.68l.36.61,34.27-19.91,9.4,5.43L347.13,124l-70.7-40.81L206.2,124l60.58,35ZM276.44,84l69.27,40-68.82,40-69.27-40Z"/></g><path class="cls-4" d="M335,121.33c2.44,1.41,2.45,3.69,0,5.09l-53.9,31.33a9.66,9.66,0,0,1-8.79,0l-54.25-31.32c-2.44-1.41-2.46-3.69,0-5.1L271.93,90a9.66,9.66,0,0,1,8.79,0Z"/><g class="cls-1"><path class="cls-5" d="M335,89c2.44,1.4,2.45,3.68,0,5.09l-53.9,31.32a9.66,9.66,0,0,1-8.79,0L218.06,94c-2.44-1.41-2.46-3.69,0-5.09l53.91-31.33a9.66,9.66,0,0,1,8.79,0Z"/><path class="cls-6" d="M276.71,124.74a7.32,7.32,0,0,1-3.56-.83L218.9,92.59c-.74-.43-1-.87-1-1.11s.38-.74,1-1.09l53.91-31.32a8,8,0,0,1,7.11,0L334.14,90.4c.73.42,1,.86,1,1.1s-.38.74-1,1.09l-53.91,31.32A7.21,7.21,0,0,1,276.71,124.74Z"/><path class="cls-7" d="M336.81,96.87c.05-.09.12-.17.16-.26l0-.12a.56.56,0,0,0,0-.12,2.16,2.16,0,0,0,.1-.61l-.33-4.25a2.16,2.16,0,0,1-.1.61.56.56,0,0,0,0,.12,3.37,3.37,0,0,1-.19.38c-.06.1-.11.2-.18.3s-.2.22-.3.33a3.63,3.63,0,0,1-.28.27A4.6,4.6,0,0,1,335,94l-53.9,31.32a6.66,6.66,0,0,1-1,.47c-.12,0-.25.08-.37.12a6.25,6.25,0,0,1-.74.21c-.2,0-.4.07-.6.11l-.55.08c-.2,0-.41,0-.61,0l-.57,0a9.77,9.77,0,0,1-1.08-.06l-.25,0c-.26,0-.52-.08-.77-.14a7.06,7.06,0,0,1-.79-.21l-.39-.12a7.32,7.32,0,0,1-1.06-.49L218.06,94a3.1,3.1,0,0,1-1.84-2.57l.33,4.25a3.12,3.12,0,0,0,1.84,2.57l54.25,31.32a7,7,0,0,0,1.07.49l.38.12a7.06,7.06,0,0,0,.79.21l.14,0,.63.1.26,0c.33,0,.68.06,1,.07H277l.56,0c.21,0,.41,0,.62,0l.54-.08c.18,0,.37-.05.54-.09l.06,0a6.25,6.25,0,0,0,.74-.21l.38-.12a6.55,6.55,0,0,0,1-.47l53.91-31.32a5.71,5.71,0,0,0,.65-.46s0,0,.06-.06a2.47,2.47,0,0,0,.28-.28,2.24,2.24,0,0,0,.3-.32C336.7,97.07,336.75,97,336.81,96.87Z"/></g><path class="cls-8" d="M273.16,108.08c-7.69,0-14.92-1.73-20.35-4.86s-8.26-7.11-8.27-11.37,2.88-8.24,8.13-11.29c5.4-3.14,12.61-4.86,20.3-4.86s14.93,1.72,20.37,4.87,8.25,7.1,8.26,11.36-2.88,8.24-8.13,11.28C288.07,106.35,280.86,108.08,273.16,108.08Z"/><path class="cls-7" d="M305.88,79.63c0,.17,0,.34,0,.52a3.37,3.37,0,0,1,0,.44c0,.13,0,.25-.05.38l-.06.44-.09.39c0,.14-.06.28-.1.43s-.07.26-.11.38-.09.29-.14.43l-.15.38c-.05.15-.12.29-.18.44l-.18.37c-.07.15-.14.3-.22.44l-.2.36c-.1.17-.21.34-.32.51a3.53,3.53,0,0,1-.21.32l-.41.57-.19.24c-.23.3-.49.6-.76.89a2.18,2.18,0,0,1-.21.22q-.32.34-.66.66l-.33.3c-.13.13-.27.25-.41.37l-.41.34c-.15.12-.3.24-.46.35a4.59,4.59,0,0,1-.44.33c-.16.12-.32.24-.49.35l-.47.32-.53.33-.68.42c-.63.37-1.3.71-2,1l-.54.25c-.61.28-1.23.55-1.87.8l-.25.11c-.69.26-1.4.49-2.11.72-.49.15-1,.29-1.51.43l-1.15.31c-.53.13-1.08.24-1.62.35l-1.18.24-.5.07c-.67.11-1.35.21-2,.29l-.59.07c-.79.09-1.59.15-2.38.2l-.44,0c-.54,0-1.08,0-1.61,0H276l-1.34,0-1.49-.08-1.35-.11-1.47-.17L269,95.93c-.52-.08-1-.17-1.55-.27s-1.08-.21-1.61-.33l-.38-.08c-.75-.18-1.49-.38-2.21-.6l-.62-.19c-.6-.19-1.19-.39-1.78-.61l-.51-.18c-.53-.21-1-.44-1.56-.66-.25-.12-.51-.22-.75-.33-.74-.36-1.46-.73-2.15-1.13A20.92,20.92,0,0,1,250,86.66a15.33,15.33,0,0,1-1.08-1.54c-.16-.26-.3-.53-.44-.79a11.56,11.56,0,0,1-.67-1.6q-.14-.41-.24-.81a10.35,10.35,0,0,1-.3-2.46l-.1,7.81c0,4.37,2.87,8.75,8.65,12.09.7.4,1.41.77,2.15,1.12.25.12.51.22.76.33.44.2.87.4,1.32.58l.24.08.51.19c.58.21,1.18.42,1.78.61l.62.19.41.13c.59.17,1.19.32,1.79.46l.39.09.88.2c.24,0,.49.08.73.12.51.1,1,.19,1.55.27l.62.11.69.08,1.46.16.7.08.66,0,1.48.07c.25,0,.5,0,.75,0h.6c.53,0,1.07,0,1.6,0,.27,0,.53,0,.8,0l.81,0,.44,0c.67,0,1.34-.09,2-.16l.38,0,.6-.07c.68-.08,1.36-.18,2-.29l.49-.08.24,0c.32,0,.63-.13.94-.2.55-.11,1.09-.22,1.63-.35.39-.09.77-.2,1.15-.31s1-.27,1.51-.43c.1,0,.22,0,.32-.09.61-.19,1.2-.41,1.78-.63l.25-.1c.64-.25,1.27-.52,1.88-.8l.54-.26c.68-.32,1.34-.67,2-1l.36-.22.32-.2c.18-.11.36-.22.53-.34l.47-.31.49-.35.44-.33.46-.36.4-.33.42-.37.18-.15.14-.15c.23-.22.46-.44.67-.66l.21-.22c.27-.3.52-.59.76-.89l0,0,.16-.21c.14-.19.28-.37.41-.56l.21-.32.32-.52s.06-.09.08-.14a2.12,2.12,0,0,0,.11-.21l.23-.44c.06-.13.12-.25.17-.37s.13-.3.19-.45a1.19,1.19,0,0,0,.08-.2,1.27,1.27,0,0,0,.06-.18c0-.14.1-.28.14-.42l.12-.39c0-.14.07-.28.1-.42l.06-.24c0-.05,0-.1,0-.15s0-.3.07-.44,0-.26.05-.39,0-.29,0-.44a2.28,2.28,0,0,0,0-.26v-.26h0Z"/><path class="cls-9" d="M305.88,6.24H247.25V79.46h0c0,4.38,2.88,8.76,8.66,12.09,11.48,6.63,30,6.63,41.45,0,5.74-3.34,8.58-7.72,8.51-12.09h0Z"/><g class="cls-1"><path class="cls-10" d="M297.23,67.54c11.48,6.63,11.54,17.38.13,24s-30,6.63-41.45,0-11.55-17.38-.14-24S285.74,60.91,297.23,67.54Z"/><path class="cls-11" d="M276.66,95.74c-7.69,0-14.92-1.73-20.36-4.87S248,83.76,248,79.5s2.88-8.23,8.13-11.28,12.61-4.87,20.3-4.87,14.92,1.73,20.36,4.87,8.26,7.11,8.26,11.37-2.88,8.23-8.12,11.28C291.56,94,284.35,95.74,276.66,95.74Z"/></g><path class="cls-12" d="M296,33.78c-9.91-4.29-23.58-4.3-33.46,0l.09-30.56c9.87-4.28,23.54-4.27,33.45,0L296,33.78"/><path class="cls-13" d="M284,51.28c-8.68-.87-17.91.63-24.59,4.51-3.86,2.24-6.34,5-7.45,7.86l0-16.45c1.11-2.88,3.6-5.62,7.46-7.86,6.67-3.88,15.91-5.38,24.59-4.5L284,51.28"/><path class="cls-14" d="M256.16,31.87a13.55,13.55,0,0,0-4.86,6.92V22.34a13.71,13.71,0,0,1,4.91-6.92l0,16.45"/><path class="cls-15" d="M251.3,63.26c.13,4.06,2.89,8.1,8.26,11.2,5.11,3,11.68,4.52,18.35,4.72l.1-33.4c-6.67-.2-13.25-1.77-18.36-4.73-5.37-3.1-8.22-7.14-8.35-11.2V63.26"/><path class="cls-4" d="M245.09,190.81c1.14.66,1.15,1.72,0,2.37L220,207.8a4.49,4.49,0,0,1-4.1,0l-25.31-14.61c-1.14-.66-1.15-1.72,0-2.38l25.16-14.62a4.55,4.55,0,0,1,4.1,0Z"/><g class="cls-1"><path class="cls-5" d="M245.09,183.48c1.14.66,1.15,1.72,0,2.38L220,200.48a4.55,4.55,0,0,1-4.1,0l-25.31-14.62c-1.14-.66-1.15-1.72,0-2.38l25.16-14.61a4.49,4.49,0,0,1,4.1,0Z"/><path class="cls-16" d="M217.91,199.7a2.87,2.87,0,0,1-1.42-.32l-25.32-14.61-.15-.1.14-.09L216.31,170a2.86,2.86,0,0,1,1.41-.32,3.05,3.05,0,0,1,1.43.32l25.31,14.62.15.1-.14.09-25.15,14.61A2.86,2.86,0,0,1,217.91,199.7Z"/><path class="cls-7" d="M246,187.24a.75.75,0,0,0,.07-.12l0-.06s0,0,0-.06a.87.87,0,0,0,.05-.28l-.16-2a.92.92,0,0,1,0,.28.14.14,0,0,1,0,.06.76.76,0,0,1-.09.18l-.08.14-.14.15a1.59,1.59,0,0,1-.13.13l-.33.24L220,200.48a4.12,4.12,0,0,1-.47.22l-.17.05-.35.1-.27.05-.26,0-.29,0h-.26a4.36,4.36,0,0,1-.51,0l-.11,0-.36-.06-.37-.1-.18-.06a3.78,3.78,0,0,1-.5-.22l-25.31-14.62a1.44,1.44,0,0,1-.86-1.2l.15,2a1.46,1.46,0,0,0,.86,1.2L216,202.52a3.68,3.68,0,0,0,.49.23l.18.05.37.1.07,0,.29,0,.12,0a3.87,3.87,0,0,0,.48,0h.29l.29,0,.25,0,.25,0h0a1.91,1.91,0,0,0,.34-.1l.18,0,.47-.22,25.15-14.62a2.77,2.77,0,0,0,.31-.21l0,0a.8.8,0,0,0,.13-.13l.14-.15Z"/></g><path class="cls-17" d="M224.15,139l-.05-20a30.07,30.07,0,0,1,9.45,3.39c4.19,2.44,6.51,5.55,6.94,8.74l.06,20c-.44-3.18-2.75-6.3-7-8.74a30.22,30.22,0,0,0-9.45-3.38m-9.44,19.66c6.8-.31,13.77,1,18.95,4.05a20.24,20.24,0,0,1,2.9,2l0-15a19.26,19.26,0,0,0-2.9-2c-5.18-3-12.15-4.37-19-4.06l0,15m-13.38-22a36.94,36.94,0,0,1,16.51-3.1L217.79,115a37,37,0,0,0-16.52,3.1l.06,18.55"/><path class="cls-4" d="M223.7,181.92a12.52,12.52,0,0,0-11.37,0c-3.15,1.81-3.16,4.76,0,6.57a12.49,12.49,0,0,0,11.37,0C226.81,186.69,226.84,183.74,223.7,181.92Z"/><path class="cls-18" d="M217.68,183.48c.67.2.13.82-.26,1.1-1,.76-2,1.53-2.62,1.23a1.07,1.07,0,0,1-.43-.84c0-.35.17,0,.72-.76A3,3,0,0,1,217.68,183.48Z"/><path class="cls-18" d="M216.07,169.79,216,184.47a1.09,1.09,0,0,1-.79.72c-.84.15-.85-.33-.85-.33s-1.71-12.59-1.93-14.33,0-1.17,0-1.17Z"/><path class="cls-18" d="M223.1,183.22c.69,0,.34.71-.17,1.24-.88.93-2,1.65-2.56,1.35a1.11,1.11,0,0,1-.44-.84c0-.35.18,0,.73-.76A4.09,4.09,0,0,1,223.1,183.22Z"/><path class="cls-18" d="M221.63,169.79l-.07,14.68a1.08,1.08,0,0,1-.79.72c-.84.15-.85-.33-.85-.33s-1.71-12.59-1.93-14.33,0-1.17,0-1.17Z"/><path class="cls-19" d="M220.21,155.5a14.22,14.22,0,0,1,2.09,10.17c-.48,3.55-.67,5.81-.67,5.81a10.82,10.82,0,0,1-9.2-.95,74.25,74.25,0,0,1-1.12-9.31,9.38,9.38,0,0,1,1.46-5.73Z"/><path class="cls-20" d="M213.85,144a2.63,2.63,0,0,0-.57.31,4.37,4.37,0,0,0-1.59,3.09c-.19,1.84.44,3.71.83,5.49a10.51,10.51,0,0,1,.25,2.61c0,.11,2.66,2.23,7.44,0,0,0,.62-3.24,1-4.79s1.44-4,.74-5.53a8.69,8.69,0,0,0-4.63-1.46A10.76,10.76,0,0,0,213.85,144Z"/><path class="cls-21" d="M215.87,143.85l-.1-3.19a.74.74,0,0,1-.66-.94c.13-.88,1-.31,1.1-.05,0,0,.19-3,1.79-3.32s2.27-.06,2.31.73.1,3.51,0,4.52,0,1.55-1.46,1.51l-.13,1.06s-.66.62-2.72.12Z"/><path class="cls-20" d="M221.92,145.18c.57.22,1.66,8.57,1.66,8.57l3.36-2.18.78,1.37s-3.76,4.95-5.78,3.53S219.09,144.05,221.92,145.18Z"/><path class="cls-21" d="M227.51,150.83c.39-.43.4-1.17.73-1.1s.36.64.36.64.78-1.15,1-1,.16.74.16.74a1,1,0,0,1,.26.61,2.46,2.46,0,0,1-2.32,2.25l-.78-1.37A4.38,4.38,0,0,1,227.51,150.83Z"/><path class="cls-18" d="M219.4,139.94c.12-1.45,2.69-2.52,1.66-3.93a2.34,2.34,0,0,0-1.51-.8,5.57,5.57,0,0,0-2.63.12,11.47,11.47,0,0,0-2.35,1.11,4.85,4.85,0,0,0-2.17,1.9,11.56,11.56,0,0,0-.5,2.58,13.77,13.77,0,0,1-1.69,3.39,3.75,3.75,0,0,0-.3,3.61c.44.74,1.27,1.17,1.79,1.86.72.95.78,2.3,1.57,3.19a2.48,2.48,0,0,0,4.31-1.22,20,20,0,0,1,.13-2.19c.36-1.25,1.91-2.05,1.86-3.36,0-.76-.62-1.43-.61-2.19s.57-1.34.68-2.06a6.5,6.5,0,0,0-.23-1.74A2.44,2.44,0,0,1,219.4,139.94Z"/><path class="cls-4" d="M452.91,222.67l-13.32,7.58a5.19,5.19,0,0,1-4.73,0l-46.54-26.87c-1.31-.75-1.32-2,0-2.74l13.31-7.58a5.19,5.19,0,0,1,4.73,0l46.54,26.87C454.2,220.68,454.21,221.91,452.91,222.67Z"/><path class="cls-4" d="M438.15,235.36l-46.54-26.87a5.19,5.19,0,0,0-4.73,0l-13.31,7.59c-1.3.75-1.3,2,0,2.74l46.54,26.87a5.25,5.25,0,0,0,4.73,0l13.31-7.59C439.47,237.34,439.46,236.12,438.15,235.36Z"/><path class="cls-4" d="M400.41,179.91c-3.17,1.83-3.19,4.79,0,6.62l70.14,40.76a12.58,12.58,0,0,0,11.43,0l70.59-40.75c3.18-1.84,3.19-4.8.05-6.63l-70.14-40.76a12.6,12.6,0,0,0-11.45,0Z"/><g class="cls-1"><path class="cls-5" d="M400.41,135.33c-3.17,1.83-3.19,4.79,0,6.62l70.14,40.76a12.58,12.58,0,0,0,11.43,0L552.53,142c3.18-1.84,3.19-4.8.05-6.63L482.44,94.57a12.63,12.63,0,0,0-11.45,0Z"/><path class="cls-22" d="M476.22,183.08a10.62,10.62,0,0,1-5.21-1.23l-70.14-40.76a3.1,3.1,0,0,1-1.85-2.44,3.16,3.16,0,0,1,1.89-2.45l70.58-40.76a11.65,11.65,0,0,1,10.44,0l70.14,40.76c1.2.7,1.86,1.56,1.85,2.44a3.17,3.17,0,0,1-1.89,2.46l-70.59,40.76A10.71,10.71,0,0,1,476.22,183.08Z"/><path class="cls-7" d="M398,146.71a2.39,2.39,0,0,1-.21-.34s0-.09,0-.14a1.09,1.09,0,0,1,0-.17,3,3,0,0,1-.14-.79l.44-6.61a2.79,2.79,0,0,0,.13.8s0,.11.05.16a3.78,3.78,0,0,0,.25.49,4.11,4.11,0,0,0,.24.39,4.81,4.81,0,0,0,.38.42c.12.13.23.25.36.37a7.06,7.06,0,0,0,.94.66l70.14,40.76a7.75,7.75,0,0,0,1.3.61c.16.06.33.1.49.15.32.11.63.21,1,.29l.78.13c.24,0,.47.09.71.11s.54,0,.81.05.48,0,.73,0a13.33,13.33,0,0,0,1.41-.08L478,184c.34,0,.68-.1,1-.17s.69-.18,1-.28l.5-.15a8.71,8.71,0,0,0,1.38-.64L552.53,142c1.6-.93,2.4-2.14,2.39-3.34l-.43,6.6c0,1.21-.8,2.42-2.4,3.34l-70.58,40.76a8.78,8.78,0,0,1-1.39.63c-.16.06-.33.1-.5.15a10.32,10.32,0,0,1-1,.29l-.18.05c-.27.05-.55.08-.82.12l-.33.05a11.73,11.73,0,0,1-1.33.08h-.08c-.24,0-.48,0-.73,0s-.54,0-.8,0l-.71-.11c-.24,0-.48-.06-.7-.11l-.08,0a9.5,9.5,0,0,1-.95-.28c-.17-.05-.34-.09-.5-.15a9.23,9.23,0,0,1-1.31-.61l-70.14-40.76a7.05,7.05,0,0,1-.85-.59l-.08-.08a4.08,4.08,0,0,1-.36-.36,3.89,3.89,0,0,1-.39-.43A3.07,3.07,0,0,1,398,146.71Z"/></g><path class="cls-8" d="M511.07,117.29,508.2,119c-17.5-7.55-41.87-7.22-58.68,1l-2.7-1.56c-18.43,10.71-18.34,28.07.21,38.78l9.24-5.37c-12.41-7.17-13.39-18.45-2.9-26.24l2.39,1.38c13.32-7.74,35-7.75,48.41,0l2-1.19c8.85,7.7,7.45,18.18-4.22,25l9.3,5.37C529.72,145.37,529.62,128,511.07,117.29Z"/><g class="cls-1"><path class="cls-20" d="M452.89,188.72c1.31.76,1.32,2,0,2.74l-13.32,7.59a5.25,5.25,0,0,1-4.73,0l-46.54-26.87c-1.31-.76-1.32-2,0-2.74l13.31-7.59a5.19,5.19,0,0,1,4.73,0Z"/><path class="cls-23" d="M437.23,198.61a3.83,3.83,0,0,1-1.87-.43l-46.54-26.87c-.33-.19-.49-.4-.49-.51s.15-.31.48-.5l13.31-7.58a3.79,3.79,0,0,1,1.86-.44,3.83,3.83,0,0,1,1.87.44l46.54,26.87c.34.19.49.4.49.51s-.15.31-.48.49l-13.3,7.59A3.83,3.83,0,0,1,437.23,198.61Z"/><path class="cls-7" d="M453.88,190.1v2.36s0,.07,0,.1v0a.25.25,0,0,1,0,.07.54.54,0,0,1,0,.1v0l0,.06,0,.1s0,0,0,0l0,0a1,1,0,0,0-.08.11l0,0,0,0-.14.15,0,0,0,0-.11.08-.09.08-.12.08-.09.05,0,0-13.31,7.58a1.91,1.91,0,0,1-.32.16l-.09,0-.26.09-.06,0h0l-.17.05-.13,0-.19,0-.11,0h0l-.38.05h-.12l-.22,0h-1.05l-.07,0-.18,0H436l-.21-.06-.08,0h0a1.9,1.9,0,0,1-.36-.12h0l0,0a2.35,2.35,0,0,1-.45-.22l-46.54-26.87a1.68,1.68,0,0,1-1-1.37V170.8a1.68,1.68,0,0,0,1,1.38l46.54,26.87a3.22,3.22,0,0,0,.46.21l0,0,.36.13.12,0,.2.05.14,0,.18,0,.15,0,.17,0h.8l.23,0h.12l.38-.05.12,0,.19,0,.13,0,.17-.05.1,0,.26-.1.1,0,.31-.16,13.32-7.59.12-.08a.62.62,0,0,0,.12-.08l.1-.08.1-.08.06-.06.14-.15a.18.18,0,0,0,.05-.07.44.44,0,0,0,.08-.11l.05-.08,0-.1a.3.3,0,0,0,0-.08l0-.1s0-.06,0-.09a.34.34,0,0,0,0-.1S453.88,190.13,453.88,190.1Z"/></g><g class="cls-1"><path class="cls-20" d="M438.15,208.48c1.31.75,1.32,2,0,2.74l-13.31,7.58a5.19,5.19,0,0,1-4.73,0l-46.54-26.87c-1.32-.75-1.32-2,0-2.74l13.31-7.58a5.19,5.19,0,0,1,4.73,0Z"/><path class="cls-24" d="M422.49,218.37a3.87,3.87,0,0,1-1.86-.43l-46.54-26.87c-.34-.2-.49-.4-.49-.51s.15-.31.47-.5l13.31-7.59a3.94,3.94,0,0,1,1.87-.43,3.87,3.87,0,0,1,1.86.43l46.54,26.87c.34.19.49.4.49.51s-.15.31-.47.5l-13.31,7.58A3.83,3.83,0,0,1,422.49,218.37Z"/><path class="cls-7" d="M439.14,209.86v2.28s0,.05,0,.07,0,.07,0,.11h0a.25.25,0,0,0,0,.07l0,.1v0l0,.06a.54.54,0,0,1,0,.11v0l0,0-.08.12,0,0,0,0c-.05.05-.09.1-.15.15l0,0h0l-.1.09-.1.07-.12.08-.08.06,0,0-13.32,7.59-.31.16-.1,0-.26.1-.06,0h0l-.17.05-.13,0-.19,0-.1,0h0l-.38.06h-1.15l-.17,0h-.15l-.18,0h-.08l-.06,0-.2-.05-.09,0h0l-.36-.12h-.05c-.15-.07-.31-.14-.45-.22l-46.54-26.87a1.68,1.68,0,0,1-1-1.38v-2.26a1.68,1.68,0,0,0,1,1.38l46.54,26.87a2.35,2.35,0,0,0,.45.22l.05,0a2.06,2.06,0,0,0,.35.12l.12,0,.21.05.14,0,.17,0,.15,0,.17,0,.15,0h1l.38-.05.13,0,.18,0,.13,0,.18-.05.09,0,.27-.1.09,0,.32-.16,13.31-7.58.13-.09.12-.08.09-.07.1-.08.06-.06.14-.15.06-.07.07-.12a.18.18,0,0,0,.05-.07s0-.07.05-.1l0-.09,0-.1a.19.19,0,0,0,0-.08.41.41,0,0,0,0-.11A.28.28,0,0,0,439.14,209.86Z"/></g><path class="cls-25" d="M502.17,78.73l0,42.34c-13.41-7.74-35.09-7.74-48.41,0l0-42.34C467.07,71,488.75,71,502.17,78.73Z"/><path class="cls-20" d="M511.41,73.37l-9.24,5.36c-13.42-7.74-35.1-7.74-48.42,0l-9.3-5.36C462.88,62.66,492.86,62.66,511.41,73.37Z"/><polygon class="cls-7" points="511.4 73.36 511.37 115.7 502.13 121.07 502.17 78.73 511.4 73.36"/><polygon class="cls-7" points="453.75 78.73 453.72 121.07 444.42 115.7 444.45 73.37 453.75 78.73"/><path class="cls-7" d="M512.27,114.44l0,20.75c0-5.1-3.36-10.22-10.11-14.12l0-20.75C508.92,104.22,512.29,109.33,512.27,114.44Z"/><path class="cls-7" d="M525.38,114.48l0,20.75c0,7-4.6,13.94-13.76,19.26l0-20.76C520.78,128.41,525.36,121.45,525.38,114.48Z"/><polygon class="cls-26" points="511.62 133.74 511.59 154.49 502.29 149.12 502.32 128.37 511.62 133.74"/><path class="cls-20" d="M511.41,95c18.55,10.71,18.64,28.07.21,38.78l-9.3-5.36c13.33-7.75,13.26-20.31-.15-28.05Z"/><path class="cls-7" d="M443.77,135l0-8.31c0-5,3.33-10.08,9.95-13.93l0,8.31C447.1,124.92,443.78,130,443.77,135Z"/><path class="cls-27" d="M430.66,135l0-8.31c0,7.06,4.64,14.14,14,19.53l0,8.31C435.3,149.1,430.64,142,430.66,135Z"/><path class="cls-20" d="M453.75,112.76c-13.33,7.75-13.26,20.3.16,28.05l-9.25,5.37c-18.55-10.71-18.64-28.08-.21-38.79Z"/><polygon class="cls-7" points="453.91 140.81 453.88 149.12 444.63 154.49 444.67 146.18 453.91 140.81"/><g class="cls-28"><g class="cls-1"><path class="cls-29" d="M539.93,70.65l0,5.48c5.77,3.33,10.43,11.41,10.41,18l4.77,2.75c0-9.65-6.76-21.41-15.16-26.27"/><path class="cls-20" d="M539.93,70.65c-8.4-4.85-15.23-1-15.26,8.71a30.7,30.7,0,0,0,4.42,14.93l3.38-1.93a21.17,21.17,0,0,1-3-10.25c0-6.63,4.7-9.31,10.47-6l0-5.48"/><path class="cls-3" d="M555.09,96.92l-4.77-2.75c0,6.62-4.71,9.3-10.48,6a21.36,21.36,0,0,1-7.37-7.78l-3.38,1.93a31,31,0,0,0,10.74,11.32c8.4,4.85,15.24,1,15.26-8.69"/></g></g><path class="cls-30" d="M485.36,26.63c-7.73-4.46-14-.88-14,8s6.22,19.71,13.95,24.18,14,.87,14.06-8S493.1,31.1,485.36,26.63Zm4.09,25.48a3.3,3.3,0,0,1-3.07,0v1.18c0,.66-.43.92-1,.6a2.26,2.26,0,0,1-1-1.77V51a12.06,12.06,0,0,1-2.63-2.7,11.58,11.58,0,0,1-1.63-3.09,2.51,2.51,0,0,1-.16-.82A1.85,1.85,0,0,1,480,44a.58.58,0,0,1,.56-.39.85.85,0,0,1,.53.12,3.47,3.47,0,0,1,1.11,1.47A7.58,7.58,0,0,0,485.41,49a2.8,2.8,0,0,0,2,.48c.57-.12.92-.56.92-1.35a3.61,3.61,0,0,0-.92-2.27,11.16,11.16,0,0,0-1.62-1.59l-.31-.28a17.25,17.25,0,0,1-3.65-3.77,7.74,7.74,0,0,1-1.48-4.3,2.87,2.87,0,0,1,1.21-2.63,3.25,3.25,0,0,1,2.87,0v-1a.73.73,0,0,1,.31-.67.72.72,0,0,1,.74.1,1.88,1.88,0,0,1,.69.73,2.11,2.11,0,0,1,.29,1v1A10.94,10.94,0,0,1,490,38.93a1.55,1.55,0,0,1,.13.6c0,.07,0,.14,0,.25a.73.73,0,0,1-.33.46.86.86,0,0,1-.78-.12,2.14,2.14,0,0,1-.71-.66A13.69,13.69,0,0,0,487,37.71a6.82,6.82,0,0,0-1.59-1.25,2.76,2.76,0,0,0-1.88-.46c-.51.11-.8.53-.81,1.23a3.5,3.5,0,0,0,1,2.3,20.33,20.33,0,0,0,2.43,2.22,17.69,17.69,0,0,1,3.1,3.37,7.55,7.55,0,0,1,1.38,4.19A3.14,3.14,0,0,1,489.45,52.11Z"/><path class="cls-31" d="M524.59,33.83A7.89,7.89,0,0,1,528.15,40c0,2.26-1.61,3.18-3.58,2A7.82,7.82,0,0,1,521,35.87c0-2.25,1.61-3.17,3.58-2M520.16,27l-2.34-3.3L515.65,25l1.68,3.68a5.72,5.72,0,0,0-1,2.21l-2.86-1.1v3.51l2.86,2.19a17.12,17.12,0,0,0,1,3.38l-1.7,1.73,2.16,3.74,2.36-.59a17.59,17.59,0,0,0,2.43,2.58l.46,3.55,3.06,1.76.48-3a5.85,5.85,0,0,0,2.44.25l2.34,3.3,2.18-1.25-1.68-3.67a5.93,5.93,0,0,0,1-2.21l2.86,1.1V42.61l-2.85-2.19a17.6,17.6,0,0,0-1-3.38l1.69-1.74-2.16-3.73-2.35.59a17.65,17.65,0,0,0-2.44-2.58L526.15,26l-3.07-1.77-.47,3a5.9,5.9,0,0,0-2.45-.24m17.7.9A4.63,4.63,0,0,1,540,31.6L539.9,62c0,1.35-1,1.89-2.14,1.22L511.29,48a4.67,4.67,0,0,1-2.12-3.67l.08-30.43c0-1.35,1-1.89,2.14-1.21l26.47,15.29"/><path class="cls-4" d="M90.22,309.86A10.6,10.6,0,0,1,85,308.62L14.41,267.87a3.23,3.23,0,0,1-1.9-2.47A3.08,3.08,0,0,1,14.37,263l70.14-40.76a11.54,11.54,0,0,1,10.43,0L165.53,263a3.17,3.17,0,0,1,1.89,2.46,3.09,3.09,0,0,1-1.85,2.43L95.43,308.62A10.51,10.51,0,0,1,90.22,309.86Z"/><g class="cls-1"><path class="cls-5" d="M166,195.32c3.17,1.83,3.19,4.79,0,6.62L95.93,242.7a12.58,12.58,0,0,1-11.43,0L13.91,202c-3.18-1.83-3.19-4.8-.05-6.63L84,154.56a12.57,12.57,0,0,1,11.44,0Z"/><path class="cls-32" d="M90.22,243.08A10.6,10.6,0,0,1,85,241.84L14.41,201.08a3.21,3.21,0,0,1-1.9-2.46,3.08,3.08,0,0,1,1.86-2.43l70.14-40.76a10.47,10.47,0,0,1,5.2-1.24,10.62,10.62,0,0,1,5.23,1.24l70.59,40.76a3.17,3.17,0,0,1,1.89,2.46,3.1,3.1,0,0,1-1.85,2.43L95.43,241.84A10.51,10.51,0,0,1,90.22,243.08Z"/><path class="cls-7" d="M168.42,206.71a2.49,2.49,0,0,0,.2-.34l0-.15c0-.05,0-.11.05-.16a2.79,2.79,0,0,0,.13-.8l-.43-6.6a2.72,2.72,0,0,1-.13.79c0,.05,0,.11,0,.16a3.23,3.23,0,0,1-.25.49,4.11,4.11,0,0,1-.24.39,5.08,5.08,0,0,1-.38.43c-.12.12-.23.24-.37.36a5.67,5.67,0,0,1-.93.66L95.93,242.7a8.33,8.33,0,0,1-1.31.62c-.15.06-.32.09-.48.15-.32.1-.63.2-1,.28s-.51.09-.77.13-.47.09-.72.12l-.8,0-.73,0a13.33,13.33,0,0,1-1.41-.08l-.33,0c-.33,0-.67-.11-1-.18a9.22,9.22,0,0,1-1-.28c-.17-.05-.34-.09-.5-.15a8.71,8.71,0,0,1-1.38-.64L13.91,202c-1.6-.92-2.4-2.13-2.4-3.34l.44,6.61c0,1.2.79,2.41,2.39,3.34l70.59,40.75a9.14,9.14,0,0,0,1.38.64l.5.15c.34.1.68.21,1,.28l.18.05c.27,0,.54.09.82.12l.33,0a11.73,11.73,0,0,0,1.33.08h.07c.25,0,.49,0,.74,0s.53,0,.8-.05.47-.07.71-.11.47-.06.7-.11l.08,0c.33-.08.64-.18,1-.28s.34-.09.5-.15a8.66,8.66,0,0,0,1.3-.62l70.14-40.76a6.44,6.44,0,0,0,.86-.58l.08-.08a4.17,4.17,0,0,0,.36-.37,5,5,0,0,0,.39-.42A4,4,0,0,0,168.42,206.71Z"/></g><g class="cls-1"><path class="cls-20" d="M113.55,248.71c-1.31.76-1.32,2,0,2.74L126.84,259a5.21,5.21,0,0,0,4.74,0l46.54-26.87c1.31-.76,1.31-2,0-2.74l-13.31-7.59a5.25,5.25,0,0,0-4.73,0Z"/><path class="cls-33" d="M129.21,258.61a3.87,3.87,0,0,1-1.86-.43L114,250.58c-.32-.18-.47-.38-.47-.49s.15-.32.49-.51l46.54-26.87a4.26,4.26,0,0,1,3.73,0l13.32,7.59c.32.19.46.39.46.49s-.15.32-.48.51l-46.54,26.87a3.83,3.83,0,0,1-1.87.44Z"/><path class="cls-34" d="M46.44,200a3.87,3.87,0,0,1-1.86-.43l-3.4-1.78c-.32-.18-.46-.39-.46-.49s.15-.32.48-.51l46.54-26.87a3.83,3.83,0,0,1,1.87-.44,3.87,3.87,0,0,1,1.86.43l3.4,1.78c.32.19.47.39.47.5s-.16.31-.49.51L48.31,199.58a3.94,3.94,0,0,1-1.87.43Z"/><path class="cls-7" d="M112.57,250.19a.41.41,0,0,0,0,.11.31.31,0,0,0,0,.08l0,.1,0,.08,0,.11.05.07.08.12,0,.07.14.15.06,0,.1.09.09.07.12.08.13.08L126.84,259l.32.16.1,0,.26.1.09,0,.18.05.13,0,.18,0,.13,0,.38.06h1.15l.17,0,.15,0,.18,0,.13,0,.21-.05.12,0,.36-.12,0,0,.46-.22,46.54-26.87a1.64,1.64,0,0,0,1-1.38v2.26a1.68,1.68,0,0,1-1,1.38L131.58,261.3a4.71,4.71,0,0,1-.45.22h0l-.36.12h0l-.08,0-.21.05h-.06l-.08,0-.18,0h-.15l-.16,0H129l-.23,0h-.12l-.38-.05h0l-.11,0-.19,0-.13,0-.17-.05h0l-.06,0-.26-.1-.09,0-.32-.16-13.31-7.59-.05,0-.08-.06-.12-.08-.1-.07-.1-.09,0,0,0,0-.15-.16s0,0,0,0,0,0,0,0l-.08-.12,0-.05a0,0,0,0,1,0,0,.31.31,0,0,1,0-.1l0-.06v0a.36.36,0,0,1,0-.1.19.19,0,0,1,0-.07v0a.34.34,0,0,0,0-.1s0,0,0-.07v-2.29A.31.31,0,0,0,112.57,250.19Z"/></g><g class="cls-1"><path class="cls-20" d="M128.28,268.47c-1.31.76-1.31,2,0,2.74l13.31,7.59a5.25,5.25,0,0,0,4.73,0l46.54-26.87c1.31-.76,1.32-2,0-2.74l-13.31-7.59a5.21,5.21,0,0,0-4.74,0Z"/><path class="cls-35" d="M143.94,278.36a3.79,3.79,0,0,1-1.86-.43l-13.32-7.59c-.32-.19-.46-.39-.46-.49s.15-.32.48-.51l46.54-26.87a3.83,3.83,0,0,1,1.87-.44,3.87,3.87,0,0,1,1.86.43l13.32,7.6c.32.18.47.38.47.49s-.15.32-.49.51l-46.54,26.87a3.8,3.8,0,0,1-1.87.43Z"/><path class="cls-7" d="M127.3,270s0,.07,0,.1a.29.29,0,0,0,0,.09.54.54,0,0,0,0,.1l0,.08,0,.1,0,.08a1,1,0,0,0,.08.11l.06.07.14.15,0,.06.11.08.09.08.12.08.13.08,13.31,7.59.32.16.09,0,.27.1.09,0,.17.05.14,0,.18,0,.13,0,.38.05h.12l.22,0h.81l.17,0,.15,0,.17,0,.14,0,.21-.05.11,0a3,3,0,0,0,.36-.13l.05,0a3.1,3.1,0,0,0,.45-.21l46.54-26.87a1.68,1.68,0,0,0,1-1.38v2.25a1.68,1.68,0,0,1-1,1.38l-46.54,26.87a2.43,2.43,0,0,1-.46.22l0,0h0l-.36.12h0l-.09,0-.2.05-.06,0H145l-.18,0-.07,0H143.7l-.23,0h-.12l-.38,0h0l-.1,0-.19,0-.13,0-.17-.05h0l-.06,0-.26-.1-.1,0-.31-.16-13.32-7.58,0,0-.08-.05-.12-.08-.1-.08-.1-.08,0,0,0,0-.14-.15,0,0s0,0,0,0l-.08-.11,0-.05,0,0,0-.1s0,0,0-.06v0l0-.1a.14.14,0,0,0,0-.07v0a.41.41,0,0,1,0-.11s0,0,0-.06V270Z"/></g><path class="cls-36" d="M48.89,118.55,49,149.8,2.87,176.42l-.09-31.25Zm-.44-4.74L48.4,95.47,15.88,114.24l0,18.34ZM80.3,128.57l.08,29,26-16.73-.08-27.33Z"/><path class="cls-7" d="M87,67.86a4.34,4.34,0,0,1,.47-.16l.29-.09.27,0,.35-.06.2,0H89a.33.33,0,0,0,.1,0,3.7,3.7,0,0,1,.48.07l.12,0,.37.11.11,0a3.36,3.36,0,0,1,.43.2l-4.17-2.42,0,0-.33-.17-.07,0-.11,0-.17-.06-.19,0-.12,0h-.06a2.73,2.73,0,0,0-.4,0h-.55l-.2,0h-.19l-.16,0-.27.06-.15,0-.15,0-.46.16-.17.06-.09.05a7.19,7.19,0,0,0-.84.41L45.33,87a11.27,11.27,0,0,0-1,.71l-.17.12a12,12,0,0,0-.93.83.27.27,0,0,0-.08.07,1,1,0,0,0-.14.15c-.15.15-.3.3-.45.47l-.14.15-.11.13-.25.31-.17.21-.13.18a2.35,2.35,0,0,0-.19.25l-.13.17c-.06.1-.13.2-.2.3l-.12.19L41,91.3l-.34.56,0,0a.41.41,0,0,1-.07.11l-.22.41a1.74,1.74,0,0,0-.1.19c0,.07-.07.13-.1.2l-.09.17-.21.48a.2.2,0,0,0,0,.08v0a6.07,6.07,0,0,0-.24.59.76.76,0,0,0,0,.11c0,.08-.06.15-.08.22l-.11.3a1.55,1.55,0,0,1-.07.23,2.29,2.29,0,0,0-.08.28,1,1,0,0,0-.05.16c0,.11,0,.21-.08.31S39,96,39,96.1l0,.11c0,.09,0,.17,0,.25a4.89,4.89,0,0,0-.09.53l0,.15a.57.57,0,0,1,0,.13c0,.4-.07.79-.07,1.17L39,189.88c0,2.09.74,3.56,1.93,4.25l4.17,2.42c-1.19-.69-1.92-2.16-1.93-4.25l-.26-91.43A9.2,9.2,0,0,1,43,99.7l0-.28.09-.53c0-.12,0-.24.07-.37l.09-.33.12-.48.09-.27c0-.18.11-.35.17-.53s0-.15.08-.22c.09-.24.19-.49.3-.73l0-.08c.1-.21.2-.43.31-.64a1.24,1.24,0,0,1,.1-.2c.1-.2.21-.4.32-.6l.06-.11.42-.68c0-.07.09-.13.13-.19l.33-.48.18-.24.3-.39.26-.31.25-.29c.14-.16.29-.32.44-.47l.22-.22a12,12,0,0,1,.94-.82l.17-.13c.34-.25.68-.49,1-.7l36.44-21a7.2,7.2,0,0,1,.83-.42Z"/><path class="cls-20" d="M85.94,68.38c3.66-2.12,6.63-.42,6.65,3.79l.26,91.44a14.55,14.55,0,0,1-6.61,11.44l-36.43,21c-3.67,2.12-6.65.42-6.66-3.79l-.26-91.43A14.59,14.59,0,0,1,49.5,89.41Z"/><path class="cls-37" d="M85.94,70.55c2.61-1.51,4.75-.29,4.76,2.72L91,164.71a10.43,10.43,0,0,1-4.72,8.17l-36.43,21c-2.62,1.51-4.75.29-4.76-2.71l-.26-91.44a10.45,10.45,0,0,1,4.73-8.19l11.7-6.75c1.59-.92,3.12-1,4.2-.29a1.58,1.58,0,0,0,1.71-.12l1.24-.71a4.87,4.87,0,0,0,1.7-1.85,11.72,11.72,0,0,1,4.17-4.55Z"/><g class="cls-1"><path class="cls-20" d="M67.12,138.29l-5.63,3.25a2.77,2.77,0,0,0-1.26,2.18l0,6.46c0,.8.57,1.13,1.27.73l5.63-3.25a2.79,2.79,0,0,0,1.25-2.18l0-6.46c0-.8-.56-1.13-1.26-.73"/><path class="cls-20" d="M76.32,143.54l-5.63,3.25A2.78,2.78,0,0,0,69.43,149l0,6.47c0,.8.57,1.12,1.27.72l5.62-3.25a2.73,2.73,0,0,0,1.26-2.18v-6.47c0-.79-.58-1.11-1.27-.71"/><path class="cls-20" d="M76.29,133l-5.63,3.24a2.83,2.83,0,0,0-1.26,2.19l0,6.46c0,.8.57,1.13,1.27.72l5.62-3.24a2.78,2.78,0,0,0,1.26-2.19v-6.46c0-.8-.58-1.12-1.27-.72"/><path class="cls-20" d="M67.15,148.83l-5.63,3.25a2.79,2.79,0,0,0-1.26,2.18l0,6.46c0,.81.57,1.13,1.27.72l5.63-3.25A2.77,2.77,0,0,0,68.43,156l0-6.47c0-.8-.56-1.12-1.26-.72"/></g><path class="cls-4" d="M77.39,192.91a12.55,12.55,0,0,1,11.37,0c3.15,1.82,3.17,4.76,0,6.58a12.49,12.49,0,0,1-11.37,0C74.28,197.68,74.25,194.73,77.39,192.91Z"/><path class="cls-18" d="M83.41,194.46c-.67.2-.13.83.26,1.11,1,.76,2,1.52,2.62,1.23a1.07,1.07,0,0,0,.43-.84c0-.35-.17,0-.72-.76A3.07,3.07,0,0,0,83.41,194.46Z"/><path class="cls-18" d="M85,180.78l.07,14.68a1.11,1.11,0,0,0,.79.72c.84.14.85-.33.85-.33s1.71-12.59,1.93-14.33,0-1.17,0-1.17Z"/><path class="cls-18" d="M78,194.21c-.69,0-.34.71.17,1.24.88.92,2,1.64,2.56,1.35a1.08,1.08,0,0,0,.44-.84c0-.35-.18,0-.73-.76A4.06,4.06,0,0,0,78,194.21Z"/><path class="cls-18" d="M79.46,180.78l.07,14.68a1.1,1.1,0,0,0,.79.72c.84.14.85-.33.85-.33s1.71-12.59,1.93-14.33,0-1.17,0-1.17Z"/><path class="cls-18" d="M80.88,166.49a14.22,14.22,0,0,0-2.09,10.17c.49,3.55.67,5.81.67,5.81a10.82,10.82,0,0,0,9.2-.95,72.27,72.27,0,0,0,1.12-9.31,9.43,9.43,0,0,0-1.45-5.74Z"/><path class="cls-20" d="M87.24,155a2.42,2.42,0,0,1,.57.31,4.41,4.41,0,0,1,1.6,3.09c.18,1.84-.45,3.71-.84,5.49a10,10,0,0,0-.24,2.6c0,.12-2.67,2.24-7.45,0,0,0-.62-3.24-1-4.79s-1.44-4-.74-5.54a8.79,8.79,0,0,1,4.63-1.45A10.74,10.74,0,0,1,87.24,155Z"/><path class="cls-21" d="M85.23,154.84l.09-3.2a.75.75,0,0,0,.67-.94c-.14-.88-1-.3-1.11,0,0,0-.19-3-1.79-3.32s-2.27-.06-2.31.72-.09,3.52,0,4.53,0,1.54,1.46,1.5l.13,1.07s.67.62,2.72.11Z"/><path class="cls-20" d="M79.17,156.16c-.57.23-1.66,8.58-1.66,8.58l-1.73,7.36,1.4.72a43.78,43.78,0,0,0,2.6-6C80.42,164.43,82,155,79.17,156.16Z"/><path class="cls-21" d="M75.06,172.69c-.41.41-1.15.45-1.07.78s.65.33.65.33-1.11.82-1,1.06.75.13.75.13a1.12,1.12,0,0,0,.62.24,2.84,2.84,0,0,0,1.52-.79,2.88,2.88,0,0,0,.64-1.62l-1.4-.72A4.61,4.61,0,0,0,75.06,172.69Z"/><path class="cls-18" d="M81.46,151c-.56-1.36-1.85-3-.4-4.22a4.62,4.62,0,0,1,5.08,0,7,7,0,0,1,2.9,4.32,16.31,16.31,0,0,1,.21,5.31,6,6,0,0,1-1.07,3.39,3.62,3.62,0,0,1-3.78,1A4.72,4.72,0,0,1,81.53,158a6.84,6.84,0,0,1-.2-4.08,5.1,5.1,0,0,0,.27-2.49A2.3,2.3,0,0,0,81.46,151Z"/><g class="cls-1"><path class="cls-20" d="M75.22,107.2c-1.71,1-3.1.19-3.11-1.77a6.81,6.81,0,0,1,3.09-5.34c1.71-1,3.1-.2,3.11,1.77a6.82,6.82,0,0,1-3.09,5.34m11.87-6.85c-1.71,1-3.1.19-3.11-1.77a6.83,6.83,0,0,1,3.09-5.35c1.71-1,3.09-.19,3.1,1.78a6.81,6.81,0,0,1-3.08,5.34M99,93.5c-1.71,1-3.1.19-3.11-1.77a6.81,6.81,0,0,1,3.09-5.34c1.71-1,3.1-.2,3.1,1.77A6.79,6.79,0,0,1,99,93.5m2.78-21.2L70.18,90.51c-4.76,2.75-8.6,9.41-8.58,14.88l0,12.74c0,5.47,3.89,7.68,8.65,4.93l0,7.53,6.53-11.31,25-14.43c4.75-2.74,8.6-9.41,8.59-14.88l0-12.74c0-5.47-3.89-7.67-8.64-4.93"/></g><path class="cls-4" d="M112.55,301c-1.31.76-1.32,2,0,2.74l13.32,7.59a5.19,5.19,0,0,0,4.73,0l46.54-26.87c1.31-.76,1.32-2,0-2.74l-13.31-7.59a5.19,5.19,0,0,0-4.73,0Z"/><path class="cls-4" d="M442,257l-88.38-51c-8.88-5.13-23.24-5.12-32.06,0L129.75,317.39c-8.82,5.13-8.77,13.43.11,18.56l88.37,51c8.88,5.13,23.24,5.14,32.06,0L442.06,275.54C450.88,270.41,450.84,262.09,442,257Z"/><path class="cls-20" d="M442,239.58c8.88,5.13,8.92,13.45.1,18.58L250.29,369.6c-8.82,5.13-23.18,5.12-32.06,0l-88.37-51c-8.88-5.13-8.93-13.43-.11-18.56L321.52,188.57c8.82-5.13,23.18-5.14,32.06,0Z"/><path class="cls-38" d="M437.4,242.23c6.35,3.66,6.38,9.62.07,13.28L245.71,367c-6.29,3.65-16.57,3.65-22.92,0l-88.38-51c-6.33-3.65-6.36-9.61-.07-13.26L326.11,191.22c6.31-3.67,16.58-3.67,22.92,0l28.4,16.4c3.85,2.22,5.92,5.31,5.68,8.45-.1,1.29.75,2.54,2.31,3.44l3,1.74a11.38,11.38,0,0,0,5.95,1.32A28.72,28.72,0,0,1,409,225.84Z"/><path class="cls-7" d="M448.59,249.6c0,.24,0,.48-.08.71s-.1.39-.15.58-.11.46-.19.68-.15.37-.23.56-.21.47-.34.7-.2.34-.3.51-.34.53-.53.79-.24.31-.37.46a13,13,0,0,1-1,1c-.13.12-.24.25-.38.37s-.45.38-.69.57-.41.34-.63.5-.54.37-.82.55-.55.37-.86.55L250.29,369.6a22.41,22.41,0,0,1-3.16,1.5l-.88.34c-.69.25-1.41.44-2.13.65s-1.49.4-2.26.56-1.84.36-2.78.48l-.65.09c-1.26.13-2.54.2-3.82.21H234c-1.26,0-2.52-.08-3.77-.21l-.56-.06a35.91,35.91,0,0,1-3.64-.63l-.65-.16a31.16,31.16,0,0,1-3.15-1l-.55-.19a23.89,23.89,0,0,1-3.46-1.63l-88.37-51c-4.47-2.58-6.7-6-6.69-9.34l0,11.71c0,3.38,2.22,6.77,6.69,9.35l88.38,51a25.31,25.31,0,0,0,3.27,1.57l.18.06.56.19c.66.24,1.32.48,2,.68.37.1.75.18,1.12.27l.65.16c.2.05.4.11.6.15q1.11.23,2.25.39c.26,0,.53.06.8.09l.56.06.84.1c.75.06,1.49.1,2.24.12h2.32c.84,0,1.68-.09,2.51-.17l.28,0c.22,0,.43-.06.65-.09.66-.08,1.32-.16,2-.27.28-.05.54-.15.82-.21.77-.16,1.52-.35,2.26-.56.4-.11.82-.18,1.21-.3s.61-.24.92-.35l.88-.33a25.54,25.54,0,0,0,3.16-1.5L442,269.88l.27-.17c.21-.12.39-.26.58-.39s.57-.36.82-.54.43-.33.63-.5.49-.38.7-.58l.14-.11c.09-.08.15-.17.23-.25a13.3,13.3,0,0,0,1-1c.06-.08.15-.15.21-.22s.1-.16.15-.24c.2-.26.37-.52.54-.79.07-.11.16-.22.22-.33l.08-.17a7.51,7.51,0,0,0,.33-.71c.06-.14.14-.27.19-.41l.05-.14c.08-.23.13-.46.19-.68s.1-.31.13-.46,0-.08,0-.12c0-.24.06-.48.08-.72s.05-.31.05-.46v-.2l0-11.72C448.65,249.16,448.61,249.38,448.59,249.6Z"/><g class="cls-1"><path class="cls-7" d="M379.23,232.8l-33.8-19.52a2.27,2.27,0,0,0-2.06,0l-.16.09c-.57.34-.57.87,0,1.2L377,234.08a2.24,2.24,0,0,0,2.06,0l.16-.09a.63.63,0,0,0,0-1.19M373.62,236l-17.49-10.1a2.5,2.5,0,0,0-2.23,0c-.61.35-.61.93,0,1.29l17.5,10.1a2.42,2.42,0,0,0,2.22,0c.61-.35.61-.93,0-1.29m-21.9-12.64-11.82-6.83a2.3,2.3,0,0,0-2.06,0l-.16.1c-.57.33-.57.86,0,1.19l11.82,6.82a2.21,2.21,0,0,0,2.06,0l.16-.09a.63.63,0,0,0,0-1.19m-10.91.1-6.36-3.67a2.48,2.48,0,0,0-2.22,0c-.61.36-.6.93,0,1.29l6.35,3.67a2.48,2.48,0,0,0,2.22,0,.68.68,0,0,0,0-1.29m-25.95-4a10.56,10.56,0,0,0-9.62,0c-2.65,1.53-2.63,4,0,5.57a10.61,10.61,0,0,0,9.63,0c2.65-1.54,2.63-4,0-5.58m42.62,26.07-33.81-19.52a2.27,2.27,0,0,0-2.06,0l-.15.1c-.58.33-.58.86,0,1.19l33.8,19.52a2.29,2.29,0,0,0,2.07,0l.15-.1a.63.63,0,0,0,0-1.19m-5.61,3.16-17.5-10.1a2.48,2.48,0,0,0-2.22,0,.68.68,0,0,0,0,1.29l17.49,10.1a2.44,2.44,0,0,0,2.23,0c.61-.35.61-.93,0-1.29M330,236l-11.82-6.82a2.24,2.24,0,0,0-2.06,0l-.16.09c-.57.33-.57.86,0,1.19l11.82,6.83a2.27,2.27,0,0,0,2.06,0l.15-.1a.63.63,0,0,0,0-1.19m-10.92.1-6.35-3.67a2.48,2.48,0,0,0-2.22,0,.68.68,0,0,0,0,1.29l6.35,3.67a2.48,2.48,0,0,0,2.22,0,.68.68,0,0,0,0-1.29M293.11,232a10.62,10.62,0,0,0-9.62,0c-2.65,1.53-2.63,4,0,5.57a10.59,10.59,0,0,0,9.62,0c2.65-1.54,2.64-4,0-5.58m42.62,26.07-33.81-19.51a2.27,2.27,0,0,0-2.06,0l-.16.1c-.57.33-.57.86,0,1.19l33.8,19.52a2.27,2.27,0,0,0,2.06,0l.16-.09a.63.63,0,0,0,0-1.2m-5.62,3.16-17.49-10.1a2.48,2.48,0,0,0-2.22,0,.68.68,0,0,0,0,1.29l17.5,10.1a2.44,2.44,0,0,0,2.23,0c.61-.35.6-.93,0-1.29M308.22,248.6l-11.82-6.82a2.29,2.29,0,0,0-2.07,0l-.16.09c-.56.33-.57.86,0,1.2L306,249.89a2.27,2.27,0,0,0,2.06,0l.16-.09a.63.63,0,0,0,0-1.2m-10.92.1L291,245a2.48,2.48,0,0,0-2.22,0,.68.68,0,0,0,0,1.29l6.35,3.67a2.44,2.44,0,0,0,2.23,0,.68.68,0,0,0,0-1.29m15.77,21.95L275.6,249a2.14,2.14,0,0,0-2,0l-.16.09c-.54.31-.53.82,0,1.14L311,271.88a2.17,2.17,0,0,0,2,0l.16-.09a.61.61,0,0,0,0-1.15m-45.3-26.15-1.91-1.1a2.18,2.18,0,0,0-2,0l-.16.09a.6.6,0,0,0,0,1.14l1.9,1.1a2.2,2.2,0,0,0,2,0l.15-.09a.6.6,0,0,0,0-1.14m68.85-37.77a10.59,10.59,0,0,0-9.62,0c-2.65,1.54-2.64,4,0,5.58a10.61,10.61,0,0,0,9.63,0c2.65-1.54,2.64-4,0-5.58"/></g><g class="cls-1"><path class="cls-7" d="M287,319.37,253.32,299.9a8.39,8.39,0,0,0-7.59,0l-11.12,6.47-9.63.26,14.36,8.29,7.44-4.32a8.36,8.36,0,0,1,7.59,0l27.77,16,4.92-2.86c2.09-1.21,2.08-3.18,0-4.4"/><path class="cls-7" d="M226.72,322.25l-5.95-3.43a8.39,8.39,0,0,0-7.59,0l-15.53,9-9.63.26,42.13,24.32a8.33,8.33,0,0,0,7.59,0l12.91-7.5L214.46,324l9.63-.26,2.63-1.53"/><path class="cls-39" d="M288.09,330.06l-5.95-3.43-27.77-16a8.36,8.36,0,0,0-7.59,0l-7.44,4.32-12.62,7.33-2.63,1.53-9.63.26,36.19,20.89,6,3.44a8.36,8.36,0,0,0,7.59,0l23.92-13.9c2.09-1.22,2.08-3.18,0-4.4"/></g><path class="cls-4" d="M177.54,364.11a12.53,12.53,0,0,0-11.36,0c-3.15,1.82-3.17,4.76,0,6.58a12.49,12.49,0,0,0,11.37,0C180.66,368.88,180.69,365.93,177.54,364.11Z"/><path class="cls-18" d="M172.78,360.62s.46.06.54.24a11.58,11.58,0,0,1,.12,1.88,11.49,11.49,0,0,1-2.31,1.74c-1.12.58-2.08.83-2.52.45s-.16-.81.76-1.56a9.55,9.55,0,0,0,1.81-2.75Z"/><path class="cls-18" d="M167.49,358.38s.46.06.54.23a11.72,11.72,0,0,1,.12,1.88,11.37,11.37,0,0,1-2.31,1.75c-1.12.58-2.08.82-2.52.45s-.16-.81.76-1.56a9.55,9.55,0,0,0,1.81-2.75Z"/><path class="cls-18" d="M184.6,338.39c0,2.13-.24,5.5-1.33,6.26-1.68,1.14-9.79,3-9.79,3l.16,13.21a2.35,2.35,0,0,1-3,0s-2.17-15.27-1.91-16.34,9.22-3.8,9.22-3.8Z"/><path class="cls-18" d="M179.22,337.23c0,2.12-.2,4.57-1.34,5.25s-9.78,3-9.78,3l.16,13.2a2.34,2.34,0,0,1-3,0s-2.17-15.26-1.91-16.33,9.22-3.8,9.22-3.8Z"/><path class="cls-21" d="M167.83,334.16s-1.36,1-1.13,1.71,2.05-1,2.05-1Z"/><path class="cls-19" d="M175.86,323.13c-1.38.16-2.86,4.76-2.92,7.39l-5.11,3.64a3.39,3.39,0,0,0,2,1.62l4.61-2.11Z"/><path class="cls-19" d="M182.27,323.88a13,13,0,0,1,3.3,1.92l-1,13.59s-2,1.48-6.14.4c-3.36-.88-4.24-2.3-4.24-2.3s-.3-6.66,0-9.9,1.63-4.46,1.63-4.46a9.25,9.25,0,0,1,2.35-.13Z"/><path class="cls-18" d="M177.71,314.64a8.1,8.1,0,0,1,4.29.27c2.12.79.88,3.81.26,5.23s-1.06.9-1.06.9l-4.61-1.86s-.62-.19-.53-2.12A2.59,2.59,0,0,1,177.71,314.64Z"/><path class="cls-21" d="M181.59,323.13l.09-3.12a.73.73,0,0,0,.65-.92c-.13-.86-.94-.3-1.08,0,0,0-.18-3-1.75-3.25s-3.09.05-3.13.82-.09,3.43,0,4.42.87,1.4,2.3,1.36l-.09,1.61s.71.53,2.72,0Z"/><path class="cls-39" d="M178.65,322.73a1.12,1.12,0,0,0-.38.06,1.88,1.88,0,0,0-.69,1.27,4.3,4.3,0,0,0,.24,1.35l1.3-1.17.82,1.58a3.31,3.31,0,0,0,1.21-.63,4.45,4.45,0,0,0,1.12-1.31c-.23-.57-.38-.91-.38-.91s-.3-.19-.3-.19a5.37,5.37,0,0,1-2.47,1.32S178.73,323.92,178.65,322.73Z"/><g class="cls-1"><path class="cls-40" d="M164.53,337.57l10.2,5.92a.12.12,0,0,1,0-.11l-10.2-5.92A.13.13,0,0,0,164.53,337.57Z"/><polygon class="cls-40" points="174.68 343.16 164.48 337.24 164.48 337.46 174.68 343.38 174.68 343.16"/><polygon class="cls-39" points="182.35 338.65 172.15 332.73 164.54 337.12 174.74 343.05 182.35 338.65"/><path class="cls-7" d="M166.79,336.83c-.15.09-.16.24,0,.33l7.66,4.45a.61.61,0,0,0,.56,0l2.9-1.67a.17.17,0,0,0,0-.32l-7.66-4.46a.61.61,0,0,0-.56,0Z"/><path class="cls-7" d="M174.29,343.39l-3.16-5.59-10.19-5.92,3.16,5.58s0,0,0,0l10.19,5.92Z"/><path class="cls-39" d="M171.37,337.09l-.08.09a.59.59,0,0,0-.16.62l3.16,5.59c.12.25.46.14.56.09l7.15-4.13a.77.77,0,0,0,.35-.6v-.1l-7.61,4.4Z"/><path class="cls-39" d="M171.37,337.09l-10.19-5.92-.09.09a.6.6,0,0,0-.15.62l10.19,5.92a.59.59,0,0,1,.16-.62Z"/></g><path class="cls-7" d="M173.53,336.07c-.07,0-.07.1,0,.14l2.53,1.47a.28.28,0,0,0,.25,0l1.27-.73c.07,0,.06-.1,0-.14L175,335.34a.25.25,0,0,0-.24,0Z"/><path class="cls-19" d="M185.57,325.8c1.08,1.23,3,7.16,2.87,8.12s-5.93,6.07-5.93,6.07l-1.67-1.49,4.13-5.17s-1.6-3.72-1.27-5.43A2.68,2.68,0,0,1,185.57,325.8Z"/><path class="cls-21" d="M180.84,338.5a17.24,17.24,0,0,0-2.66.47c-.21.19.26.68.26.68s-1,1.26-1.3,1.61,1.41.44,2.37.28a4.13,4.13,0,0,0,3-1.55Z"/><path class="cls-18" d="M182.26,315.16l-.18-.44a2.25,2.25,0,0,0-2.22-1.21,6.6,6.6,0,0,0-3.59,1.44,2.82,2.82,0,0,1-1.72.66,1.34,1.34,0,0,0,.95.73,1.7,1.7,0,0,1-1,.49l.64.31-.61.66a6.51,6.51,0,0,1,1.09,0,6.53,6.53,0,0,0,1.25-.21,5.88,5.88,0,0,0,2-1c.31.42.6.88.94,1.28.12.16,1.15.89,1.15,1,0,.45,0,.92,0,1.37a4,4,0,0,1,.58-1.39,3.81,3.81,0,0,0,.54-1.4,13.34,13.34,0,0,0,.28-1.51A2.42,2.42,0,0,0,182.26,315.16Z"/><g class="cls-1"><path class="cls-7" d="M251.17,275.14a.8.8,0,0,1,0-1.52,2.9,2.9,0,0,1,2.63,0l12,6.93c.73.43.74,1.11,0,1.53a2.87,2.87,0,0,1-2.63,0l-12-6.93m6.28-3.65a.8.8,0,0,1,0-1.52,2.9,2.9,0,0,1,2.63,0l15.84,9.14a.8.8,0,0,1,0,1.52,2.9,2.9,0,0,1-2.63,0l-15.83-9.14m22.15,12.79c-.74-.43-.74-1.11,0-1.53a2.92,2.92,0,0,1,2.64,0l15.83,9.14a.81.81,0,0,1,0,1.53,2.88,2.88,0,0,1-2.62,0l-15.83-9.14m21.81,12.59c-.74-.42-.74-1.11,0-1.52a2.86,2.86,0,0,1,2.64,0l14.37,8.29c.73.43.74,1.11,0,1.53a2.9,2.9,0,0,1-2.63,0l-14.37-8.3m-67.79-30c-4.4-2.54-4.42-6.65-.06-9.19s11.48-2.54,15.88,0,4.41,6.65,0,9.19-11.46,2.54-15.86,0m29.16,1.55c-.74-.42-.74-1.1,0-1.52a2.89,2.89,0,0,1,2.64,0L301,287.45a.81.81,0,0,1,0,1.53,2.93,2.93,0,0,1-2.63,0L262.78,268.4m41.51,24a.81.81,0,0,1,0-1.53,3,3,0,0,1,2.64,0l16.81,9.71a.81.81,0,0,1,0,1.53,2.87,2.87,0,0,1-2.63,0l-16.81-9.7m27.25,7.41L244.1,249.3a5.81,5.81,0,0,0-5.29,0l-19.66,11.42c-1.46.85-1.46,2.23,0,3.07l87.45,50.49a5.86,5.86,0,0,0,5.3,0l19.66-11.42c1.46-.85,1.45-2.22,0-3.07"/><path class="cls-41" d="M249.44,257.66c-4.4-2.54-11.5-2.54-15.88,0s-4.34,6.65.06,9.19,11.5,2.54,15.86,0,4.35-6.65,0-9.19"/><path class="cls-41" d="M301,287.45,265.4,266.88a2.89,2.89,0,0,0-2.64,0c-.72.42-.72,1.1,0,1.52L298.41,289a2.93,2.93,0,0,0,2.63,0,.81.81,0,0,0,0-1.53"/><path class="cls-41" d="M275.91,279.11,260.07,270a2.9,2.9,0,0,0-2.63,0,.8.8,0,0,0,0,1.52l15.83,9.14a2.9,2.9,0,0,0,2.63,0,.8.8,0,0,0,0-1.52"/><path class="cls-41" d="M265.79,280.55l-12-6.93a2.9,2.9,0,0,0-2.63,0,.8.8,0,0,0,0,1.52l12,6.93a2.87,2.87,0,0,0,2.63,0c.72-.42.71-1.1,0-1.53"/><path class="cls-41" d="M298.05,291.89l-15.83-9.14a2.92,2.92,0,0,0-2.64,0c-.72.42-.72,1.1,0,1.53l15.83,9.14a2.88,2.88,0,0,0,2.62,0,.81.81,0,0,0,0-1.53"/><path class="cls-41" d="M318.4,303.64,304,295.35a2.86,2.86,0,0,0-2.64,0c-.72.41-.72,1.1,0,1.52l14.37,8.3a2.9,2.9,0,0,0,2.63,0c.73-.42.72-1.1,0-1.53"/><path class="cls-41" d="M323.72,300.55l-16.81-9.71a3,3,0,0,0-2.64,0,.81.81,0,0,0,0,1.53l16.81,9.7a2.87,2.87,0,0,0,2.63,0,.81.81,0,0,0,0-1.53"/></g><path class="cls-4" d="M545.87,270.11,516.15,253a5.32,5.32,0,0,0-4.82,0l-29.54,17.17c-1.33.77-1.32,2,0,2.79l29.73,17.16a5.3,5.3,0,0,0,4.81,0l29.54-17.17C547.21,272.13,547.21,270.89,545.87,270.11Z"/><g class="cls-1"><path class="cls-5" d="M545.87,240c1.34.77,1.34,2,0,2.79l-29.54,17.16a5.3,5.3,0,0,1-4.81,0l-29.73-17.16c-1.34-.77-1.35-2,0-2.79l29.54-17.17a5.29,5.29,0,0,1,4.82,0Z"/><path class="cls-42" d="M514,259a3.49,3.49,0,0,1-1.67-.38l-29.73-17.17-.17-.11.16-.11,29.53-17.16a3.45,3.45,0,0,1,1.66-.38,3.49,3.49,0,0,1,1.67.38l29.73,17.16a1.56,1.56,0,0,1,.17.12.74.74,0,0,1-.16.1l-29.53,17.17A3.45,3.45,0,0,1,514,259Z"/><path class="cls-7" d="M546.88,245.66l.08-.14a.14.14,0,0,0,0-.06l0-.07a1.4,1.4,0,0,0,0-.34l-.18-3.66a1,1,0,0,1-.06.34.25.25,0,0,1,0,.07,1.86,1.86,0,0,1-.1.2.86.86,0,0,1-.1.16,1,1,0,0,1-.17.18.75.75,0,0,1-.15.16,2.44,2.44,0,0,1-.39.28l-29.54,17.16a3.1,3.1,0,0,1-.55.26,1.52,1.52,0,0,1-.2.06,3.17,3.17,0,0,1-.41.12c-.11,0-.22,0-.33.06l-.3.05h-.33l-.31,0-.6,0-.13,0-.43-.08a3,3,0,0,1-.43-.12l-.21-.06a3.43,3.43,0,0,1-.58-.27l-29.73-17.16a1.72,1.72,0,0,1-1-1.41L481,245a1.72,1.72,0,0,0,1,1.41l29.73,17.16a3.83,3.83,0,0,0,.58.27l.21.06a3.17,3.17,0,0,0,.44.12l.07,0a2.11,2.11,0,0,0,.35.05l.14,0a5.09,5.09,0,0,0,.56,0h0l.31,0h.34l.3,0,.29-.05h0a3.17,3.17,0,0,0,.41-.12l.2-.06a3.1,3.1,0,0,0,.55-.26l29.54-17.16a2.07,2.07,0,0,0,.36-.25l0,0,.15-.16a.9.9,0,0,0,.16-.18A1.4,1.4,0,0,0,546.88,245.66Z"/></g><g class="cls-1"><path class="cls-7" d="M526.06,238.71a3.15,3.15,0,0,1,0,.43,3.58,3.58,0,0,1-.09.35c0,.14-.07.28-.11.41a3.49,3.49,0,0,1-.15.34,4.14,4.14,0,0,1-.2.43c-.05.1-.12.2-.18.3l-.32.48c-.12.16-.24.31-.37.46l-.09.1a5.22,5.22,0,0,1-.58.57c-.13.12-.28.23-.42.35l-.38.3a5.39,5.39,0,0,1-.5.33l-.52.34c-.41.24-.85.45-1.3.66l-.39.16c-.35.15-.71.29-1.08.41l-.39.14-.71.2-.54.14c-.25.07-.51.12-.76.17l-.52.1c-.52.09-1,.17-1.56.22l-.49,0q-.47,0-.93.06l-.6,0h-1.38l-.7,0-.63,0-.69-.08-.62-.09-.72-.13-.57-.11c-.29-.06-.58-.14-.86-.21l-.47-.13c-.5-.14-1-.31-1.47-.49l-.7-.3-.35-.15c-.35-.17-.69-.34-1-.53a8.57,8.57,0,0,1-3.49-3.39,5,5,0,0,1-.57-2.28v3.11c0,2,1.35,4.1,4.06,5.66a10.71,10.71,0,0,0,1,.53l.35.16.62.26.08,0c.48.19,1,.35,1.47.5l.12,0,.35.08c.28.08.57.15.86.21l.22.06.35.06.73.13.29.05.32,0,.69.08.32,0h.31l.7,0,.35,0h1c.13,0,.25,0,.38,0h.22l.93-.06.37,0,.12,0c.52,0,1-.12,1.56-.21h.08l.44-.1.76-.16c.18,0,.36-.1.54-.15s.47-.12.71-.2l.15,0a2.34,2.34,0,0,1,.24-.09c.37-.13.73-.27,1.08-.41l.39-.17a13.19,13.19,0,0,0,1.3-.66l.17-.09.35-.24.5-.33c.13-.1.26-.2.38-.31s.29-.23.42-.34l.09-.07c.18-.17.34-.33.49-.5l.1-.11.26-.31a1.7,1.7,0,0,1,.1-.14c.12-.16.22-.32.32-.48s.1-.14.14-.2a.49.49,0,0,0,0-.11c.08-.14.14-.28.21-.43s.08-.16.11-.25l0-.08c.05-.14.08-.27.12-.41s.06-.19.07-.28a.17.17,0,0,0,0-.07,3.29,3.29,0,0,0,0-.44c0-.09,0-.18,0-.28v-3.22C526.1,238.44,526.07,238.57,526.06,238.71Z"/><path class="cls-43" d="M522,232.64c5.38,3.11,5.41,8.15.06,11.26s-14.06,3.11-19.44,0-5.41-8.15-.06-11.26S516.65,229.53,522,232.64Z"/></g><g class="cls-1"><path class="cls-7" d="M526.06,234.6a3,3,0,0,1,0,.43c0,.12-.06.24-.09.36s-.07.27-.11.41-.1.22-.15.33a3.36,3.36,0,0,1-.2.43c-.05.1-.12.2-.18.31l-.32.48-.37.45-.09.11a6.2,6.2,0,0,1-.58.56c-.13.12-.28.24-.42.35l-.38.31-.5.33c-.17.11-.34.23-.52.33a13.19,13.19,0,0,1-1.3.66l-.39.17c-.35.14-.71.28-1.08.4l-.39.14-.71.2-.54.15-.76.16-.52.11q-.78.14-1.56.21l-.49,0-.93.07h-1.35l-.63,0-.7,0-.63-.05-.69-.08c-.21,0-.41-.05-.62-.09l-.72-.12-.57-.12c-.29-.06-.58-.13-.86-.21l-.47-.12c-.5-.15-1-.32-1.47-.5-.24-.09-.47-.19-.7-.3l-.35-.15c-.35-.17-.69-.34-1-.53a8.56,8.56,0,0,1-3.49-3.38,5,5,0,0,1-.57-2.29v3.11c0,2.05,1.35,4.1,4.06,5.67.32.18.66.36,1,.52l.35.16.62.27.08,0c.48.19,1,.35,1.47.5l.12,0,.35.09.86.21.22,0,.35.06.73.13.29.05.32,0,.69.07.32,0,.31,0,.7,0,.35,0h1.41l.22,0c.31,0,.62,0,.93-.06.12,0,.25,0,.37,0h.12c.52-.06,1-.13,1.56-.22h.08l.44-.1.76-.16.54-.14.71-.2.15-.05.24-.09c.37-.13.73-.26,1.08-.41l.39-.17a13.13,13.13,0,0,0,1.3-.65l.17-.1.35-.24c.17-.11.34-.21.5-.33l.38-.3c.15-.12.29-.23.42-.35l.09-.07a5.75,5.75,0,0,0,.49-.5l.1-.11a3.88,3.88,0,0,0,.26-.31,1.7,1.7,0,0,0,.1-.14c.12-.16.22-.32.32-.48s.1-.13.14-.2a.42.42,0,0,0,0-.1c.08-.15.14-.29.21-.43s.08-.17.11-.25l0-.09c.05-.13.08-.27.12-.41a2.29,2.29,0,0,0,.07-.28.17.17,0,0,0,0-.07,3.34,3.34,0,0,0,0-.43c0-.1,0-.19,0-.29V234.2C526.1,234.33,526.07,234.47,526.06,234.6Z"/><path class="cls-44" d="M522,228.53c5.38,3.11,5.41,8.15.06,11.26s-14.06,3.11-19.44,0-5.41-8.15-.06-11.26S516.65,225.42,522,228.53Z"/></g><g class="cls-1"><path class="cls-7" d="M526.06,230.49a3.29,3.29,0,0,1,0,.44c0,.11-.06.23-.09.35s-.07.27-.11.41-.1.22-.15.34a4,4,0,0,1-.2.42,3.14,3.14,0,0,1-.18.31l-.32.48-.37.45-.09.11a7.86,7.86,0,0,1-.58.57c-.13.12-.28.23-.42.35l-.38.3-.5.33-.52.34c-.41.23-.85.45-1.3.65l-.39.17c-.35.15-.71.28-1.08.41l-.39.13-.71.21-.54.14-.76.16-.52.11c-.52.09-1,.16-1.56.22l-.49,0-.93.06h-1.35l-.63,0-.7,0-.63,0-.69-.08-.62-.08-.72-.13-.57-.11-.86-.21-.47-.13c-.5-.15-1-.31-1.47-.5l-.7-.29-.35-.16c-.35-.16-.69-.34-1-.52a8.57,8.57,0,0,1-3.49-3.39,5,5,0,0,1-.57-2.28v3.1c0,2,1.35,4.11,4.06,5.67.32.19.66.36,1,.53l.35.15c.21.09.41.19.62.27l.08,0c.48.18,1,.35,1.47.49l.12,0,.35.09c.28.08.57.15.86.21l.22.06.35.06.73.12.29,0,.32,0,.69.08.32,0,.31,0,.7,0h1.76l.22,0q.47,0,.93-.06l.37,0,.12,0c.52-.05,1-.13,1.56-.22h.08c.15,0,.29-.06.44-.09l.76-.16.54-.15.71-.2.15,0,.24-.09c.37-.12.73-.26,1.08-.41l.39-.16c.45-.21.89-.42,1.3-.66l.17-.1.35-.23c.17-.11.34-.22.5-.34s.26-.2.38-.3.29-.23.42-.35l.09-.07a5.75,5.75,0,0,0,.49-.5s.06-.07.1-.1.18-.21.26-.32a1.7,1.7,0,0,0,.1-.14,5,5,0,0,0,.32-.48c0-.06.1-.13.14-.2a.42.42,0,0,0,0-.1c.08-.14.14-.29.21-.43s.08-.17.11-.25l0-.09c.05-.13.08-.27.12-.41a2.68,2.68,0,0,0,.07-.27.22.22,0,0,0,0-.08,3.15,3.15,0,0,0,0-.43c0-.1,0-.19,0-.28v-3.23C526.1,230.23,526.07,230.36,526.06,230.49Z"/><path class="cls-45" d="M522,224.42c5.38,3.11,5.41,8.15.06,11.27s-14.06,3.1-19.44,0-5.41-8.16-.06-11.26S516.65,221.31,522,224.42Z"/></g><g class="cls-1"><path class="cls-7" d="M526.06,226.39a3.15,3.15,0,0,1,0,.43c0,.12-.06.23-.09.35s-.07.28-.11.41a3.49,3.49,0,0,1-.15.34c-.06.14-.12.28-.2.43s-.12.2-.18.3l-.32.48c-.12.15-.24.31-.37.45l-.09.11a7.86,7.86,0,0,1-.58.57c-.13.12-.28.23-.42.35l-.38.3c-.16.12-.33.22-.5.33l-.52.34a13.13,13.13,0,0,1-1.3.65l-.39.17c-.35.15-.71.28-1.08.41l-.39.14-.71.2-.54.14-.76.17-.52.1c-.52.09-1,.16-1.56.22l-.49,0q-.47,0-.93.06l-.6,0h-.75l-.63,0-.7,0-.63-.06-.69-.07-.62-.09-.72-.13-.57-.11-.86-.21-.47-.13c-.5-.15-1-.31-1.47-.5l-.7-.29-.35-.16a10.65,10.65,0,0,1-1-.52,8.57,8.57,0,0,1-3.49-3.39,5,5,0,0,1-.57-2.28V229c0,2.05,1.35,4.11,4.06,5.67.32.19.66.36,1,.53l.35.15c.21.1.41.19.62.27l.08,0c.48.18,1,.35,1.47.5l.12,0,.35.08c.28.08.57.15.86.21l.22.06.35.06c.24,0,.48.09.73.12l.29.06.32,0,.69.08.32,0,.31,0,.7,0,.35,0h1.63l.93-.07.37,0,.12,0c.52,0,1-.12,1.56-.21l.08,0c.15,0,.29-.06.44-.09l.76-.16.54-.15.71-.2.15,0,.24-.1c.37-.12.73-.26,1.08-.4l.39-.17a13.19,13.19,0,0,0,1.3-.66l.17-.1.35-.23.5-.33.38-.31a4.87,4.87,0,0,0,.42-.35l.09-.07c.18-.16.34-.33.49-.49a1.09,1.09,0,0,1,.1-.11l.26-.31a1.7,1.7,0,0,1,.1-.14c.12-.16.22-.32.32-.48s.1-.14.14-.2a.49.49,0,0,0,0-.11c.08-.14.14-.28.21-.43s.08-.16.11-.25l0-.08c.05-.14.08-.28.12-.41s.06-.19.07-.28a.22.22,0,0,0,0-.08,3,3,0,0,0,0-.43c0-.09,0-.19,0-.28V226C526.1,226.12,526.07,226.25,526.06,226.39Z"/><path class="cls-46" d="M522,220.32c5.38,3.1,5.41,8.15.06,11.26s-14.06,3.11-19.44,0-5.41-8.15-.06-11.26S516.65,217.2,522,220.32Z"/></g><g class="cls-1"><path class="cls-7" d="M526.06,222.28a3.15,3.15,0,0,1,0,.43,3.58,3.58,0,0,1-.09.35c0,.14-.07.28-.11.42s-.1.22-.15.33a4.14,4.14,0,0,1-.2.43c-.05.1-.12.2-.18.3a5.72,5.72,0,0,1-.32.48c-.12.16-.24.31-.37.46l-.09.1a5.22,5.22,0,0,1-.58.57c-.13.12-.28.24-.42.35l-.38.31-.5.33-.52.33c-.41.24-.85.45-1.3.66l-.39.16c-.35.15-.71.29-1.08.41l-.39.14-.71.2-.54.15-.76.16-.52.1c-.52.09-1,.17-1.56.22l-.49,0-.93.06-.6,0q-.37,0-.75,0h-.63l-.7,0-.63-.05-.69-.08-.62-.09-.72-.12-.57-.12c-.29-.06-.58-.13-.86-.21l-.47-.12c-.5-.15-1-.32-1.47-.5-.24-.09-.47-.2-.7-.3l-.35-.15c-.35-.17-.69-.34-1-.53a8.57,8.57,0,0,1-3.49-3.39,5,5,0,0,1-.57-2.28v3.11c0,2.05,1.35,4.1,4.06,5.67.32.18.66.36,1,.52l.35.16.62.27.08,0c.48.19,1,.35,1.47.5l.12,0,.35.09.86.21.22.05.35.06.73.13.29.05.32,0,.69.08.32,0h.31l.7,0,.35,0h1.63c.31,0,.62,0,.93-.06l.37,0h.12c.52-.06,1-.13,1.56-.22h.08l.44-.1.76-.16.54-.14.71-.21.15,0,.24-.09c.37-.13.73-.26,1.08-.41l.39-.17a13.13,13.13,0,0,0,1.3-.65l.17-.1.35-.24.5-.33.38-.3c.15-.12.29-.23.42-.35l.09-.07c.18-.17.34-.33.49-.5l.1-.11a3.88,3.88,0,0,0,.26-.31l.1-.14c.12-.16.22-.32.32-.48s.1-.13.14-.2a.49.49,0,0,0,0-.11c.08-.14.14-.28.21-.42s.08-.17.11-.25l0-.09c.05-.14.08-.27.12-.41a2.86,2.86,0,0,0,.07-.28.17.17,0,0,0,0-.07,3.29,3.29,0,0,0,0-.44c0-.09,0-.18,0-.28v-3.22C526.1,222,526.07,222.15,526.06,222.28Z"/><path class="cls-47" d="M522,216.21c5.38,3.11,5.41,8.15.06,11.26s-14.06,3.11-19.44,0-5.41-8.15-.06-11.26S516.65,213.1,522,216.21Z"/></g><g class="cls-1"><path class="cls-7" d="M525.12,216.88a3.34,3.34,0,0,1,0,.43c0,.12-.05.23-.08.35s-.07.27-.12.41-.09.22-.14.34l-.2.42c-.06.11-.13.21-.19.31s-.2.32-.32.48-.23.3-.36.45l-.09.11c-.18.19-.38.38-.58.57l-.43.35-.38.3-.5.33c-.17.11-.33.23-.52.34a14.14,14.14,0,0,1-1.29.65l-.4.17c-.35.15-.71.28-1.08.41l-.39.13c-.23.08-.47.14-.71.21l-.54.14-.76.16-.52.11c-.51.09-1,.16-1.56.22l-.49,0c-.31,0-.62.05-.93.06l-.6,0h-.75l-.63,0-.7,0-.63-.05-.69-.08-.61-.08-.73-.13-.57-.11-.86-.21-.47-.13c-.5-.15-1-.31-1.47-.5-.24-.09-.47-.19-.69-.29l-.36-.16c-.35-.16-.68-.34-1-.52a8.64,8.64,0,0,1-3.49-3.39,5,5,0,0,1-.57-2.28v3.1c0,2.05,1.35,4.11,4.06,5.67.33.19.66.36,1,.53l.36.15c.2.09.4.19.61.27l.08,0c.48.18,1,.35,1.48.5l.11,0,.35.09c.29.08.57.15.86.21l.23.06c.11,0,.23,0,.34.06l.73.12.29.05.32,0,.69.08.33,0,.3,0,.7,0,.35,0h1.41l.22,0q.46,0,.93-.06l.38,0,.11,0c.53-.05,1.05-.13,1.56-.22h.08c.15,0,.29-.06.44-.09l.76-.16.54-.15.71-.2.15,0,.25-.1c.36-.12.72-.26,1.07-.41l.4-.16c.44-.21.88-.42,1.29-.66l.17-.1c.13-.07.23-.16.35-.23l.5-.33c.14-.1.26-.21.39-.31s.29-.23.42-.35a.5.5,0,0,0,.08-.07c.18-.16.34-.33.5-.5l.09-.1.27-.32.09-.14a4,4,0,0,0,.32-.48,1.43,1.43,0,0,0,.14-.2l0-.1c.07-.14.14-.29.2-.43s.08-.16.12-.25,0-.06,0-.08.08-.28.12-.42.06-.18.08-.27a.22.22,0,0,1,0-.08c0-.14,0-.29,0-.43a2.66,2.66,0,0,1,0-.28v-3.23A2.85,2.85,0,0,1,525.12,216.88Z"/><path class="cls-48" d="M521.1,210.8c5.39,3.11,5.41,8.16.06,11.27s-14,3.11-19.44,0-5.41-8.15-.06-11.26S515.71,207.69,521.1,210.8Z"/><path class="cls-7" d="M516.53,212.86a.37.37,0,0,1,.21.31c0,.12-.09.22-.23.31l-.47.27c.69.54,1,1.16.73,1.73l-.17.17-.13.07a1.49,1.49,0,0,1-.47.07,1.16,1.16,0,0,1-.55-.15.45.45,0,0,1-.27-.28,1.51,1.51,0,0,0-.2-.65,2,2,0,0,0-.69-.57,3.28,3.28,0,0,0-1.26-.41,2,2,0,0,0-1.19.21c-.36.21-.41.46-.21.76a4,4,0,0,0,.9,1,2.84,2.84,0,0,1,.91,1.36c.09.5-.17.94-.8,1.31a4.82,4.82,0,0,1-2.24.56,6.26,6.26,0,0,1-2.44-.45l-.52.31a1.14,1.14,0,0,1-1.06,0c-.3-.17-.32-.45,0-.63l.51-.3a2.24,2.24,0,0,1-.84-1.11,1.25,1.25,0,0,1,.11-1.07.73.73,0,0,1,.26-.23l.22-.1a1.45,1.45,0,0,1,.63,0,1.1,1.1,0,0,1,.36.11c.19.11.24.29.21.56-.22.53.07,1,.82,1.47a3.26,3.26,0,0,0,1.34.43,2.2,2.2,0,0,0,1.32-.22c.35-.2.45-.45.31-.74a2.43,2.43,0,0,0-.56-.66l-.12-.12a3.17,3.17,0,0,1-1.16-1.55c-.11-.54.14-1,.78-1.37a4.39,4.39,0,0,1,2.14-.5,5.8,5.8,0,0,1,2.27.42l.47-.27a1.13,1.13,0,0,1,.56-.13A1.19,1.19,0,0,1,516.53,212.86Z"/></g><path class="cls-4" d="M510.79,339.47c2.21,1.28,2.22,3.34,0,4.62L462,372.49a8.81,8.81,0,0,1-8,0l-49.18-28.4c-2.22-1.28-2.23-3.34,0-4.62l48.87-28.4a8.78,8.78,0,0,1,8,0Z"/><g class="cls-1"><path class="cls-5" d="M510.79,314.1c2.21,1.27,2.22,3.34,0,4.61L462,347.11a8.75,8.75,0,0,1-8,0L404.8,318.72c-2.22-1.28-2.23-3.35,0-4.62l48.87-28.4a8.75,8.75,0,0,1,8,0Z"/><path class="cls-49" d="M458,345.61a5.72,5.72,0,0,1-2.76-.62L406,316.59l-.29-.19a2.28,2.28,0,0,1,.26-.18l48.87-28.4a5.61,5.61,0,0,1,2.74-.62,5.73,5.73,0,0,1,2.77.63l49.19,28.4a2.77,2.77,0,0,1,.28.18,1.46,1.46,0,0,1-.26.18L460.71,345A5.61,5.61,0,0,1,458,345.61Z"/><path class="cls-7" d="M512.46,323.48c0-.08.11-.16.14-.24l0-.1a.49.49,0,0,0,0-.11,2.18,2.18,0,0,0,.09-.55l-.3-6.06a1.72,1.72,0,0,1-.1.55l0,.12a3.59,3.59,0,0,1-.17.34c-.06.09-.1.18-.17.27a2.44,2.44,0,0,1-.27.3,3,3,0,0,1-.25.25,4.15,4.15,0,0,1-.65.46L462,347.11a5.43,5.43,0,0,1-.91.43l-.34.1a5.16,5.16,0,0,1-.67.2l-.54.09-.5.08c-.18,0-.37,0-.56,0l-.51,0c-.33,0-.66,0-1-.06l-.23,0c-.23,0-.47-.07-.7-.12s-.48-.13-.72-.2-.23-.06-.34-.11a6.1,6.1,0,0,1-1-.44L404.8,318.72a2.83,2.83,0,0,1-1.67-2.33l.3,6.05a2.84,2.84,0,0,0,1.67,2.33l49.19,28.4a6.51,6.51,0,0,0,1,.44l.35.1a5.44,5.44,0,0,0,.72.2l.12,0,.57.08.23,0c.31,0,.62.05.93.05h.05l.51,0c.19,0,.38,0,.56,0l.5-.08c.16,0,.33,0,.49-.08l.05,0c.23-.05.45-.12.67-.19s.23-.06.34-.11a6.32,6.32,0,0,0,.91-.42l48.87-28.4a5.71,5.71,0,0,0,.6-.41l0-.06a3.07,3.07,0,0,0,.26-.25,3.85,3.85,0,0,0,.27-.3C512.36,323.66,512.41,323.57,512.46,323.48Z"/></g><path class="cls-4" d="M473,321.06a12.55,12.55,0,0,0-11.37,0c-3.14,1.82-3.11,4.77,0,6.59a12.49,12.49,0,0,0,11.37,0C476.17,325.82,476.15,322.88,473,321.06Z"/><path class="cls-18" d="M463,322.61s-.45.06-.54.24a12.82,12.82,0,0,0-.12,1.88,11.78,11.78,0,0,0,2.31,1.75c1.12.57,2.09.82,2.52.44s.16-.81-.76-1.56a9.44,9.44,0,0,1-1.8-2.75Z"/><path class="cls-18" d="M468.85,320.25s-.45.06-.54.23a13,13,0,0,0-.12,1.88,11.37,11.37,0,0,0,2.31,1.75c1.12.57,2.09.82,2.52.45s.16-.81-.76-1.56a9.44,9.44,0,0,1-1.8-2.75Z"/><path class="cls-18" d="M472.1,276.18a14.55,14.55,0,0,1,.16,2,38.44,38.44,0,0,1-.12,6.16,25.05,25.05,0,0,1-1.5,6.49,8.72,8.72,0,0,1-4,4.68,4.72,4.72,0,0,1-5.48-.94,7.59,7.59,0,0,1-1.6-5.73,20.06,20.06,0,0,1,1.71-5.81,37.85,37.85,0,0,0,1.9-5.52,6.7,6.7,0,0,1,2.52-4.23,4.1,4.1,0,0,1,4.86.17A4.23,4.23,0,0,1,472.1,276.18Z"/><path class="cls-18" d="M462.28,299.64c-.42,6.2,0,23.37,0,23.37a2.43,2.43,0,0,0,2.6,0s2.77-20.2,2.82-20.68.32,18.5.32,18.5a2.35,2.35,0,0,0,2.79-.4s1.92-16.78,1.63-22.38a10.75,10.75,0,0,0-.84-4.29l-7.45,0S462.56,295.56,462.28,299.64Z"/><path class="cls-19" d="M470.63,282.14c1,.12,2.23,7.59,2.58,8.19s6.31,4.87,6.31,4.87l-1.28,1.35s-5.64-2.44-7-3.7S470.63,282.14,470.63,282.14Z"/><path class="cls-19" d="M465.12,282.19a9.09,9.09,0,0,0-2.29.81,25.1,25.1,0,0,0,.61,6.75,12.34,12.34,0,0,1,.71,4s1.71,2.76,7.45,0c0,0,.52-3.22.87-4.77s.91-1.63.1-3.44a20.63,20.63,0,0,0-1.94-3.37,6.13,6.13,0,0,0-1.66-.21Z"/><path class="cls-21" d="M465.81,281.44l-.07-3.33a.73.73,0,0,1-.65-.92c.14-.86.94-.29,1.08,0,0,0,.21-3,1.78-3.24s3.09.08,3.12.84a15.55,15.55,0,0,1-.44,4.47c-.32,1-.47,1.35-1.9,1.3l.08,1.81s-.72.52-2.72,0Z"/><path class="cls-5" d="M468.75,281.06a1.12,1.12,0,0,1,.38.06,2,2,0,0,1,.68,1.28c0,.29,0,.59-.23.79-.51.39-1-.31-1.31-.62,0,0-.28.58-.3.61a1.19,1.19,0,0,1-.82.48c-.93.13-1.64-.74-2-1.47.23-.57.39-.91.39-.91s.3-.19.3-.19a5.31,5.31,0,0,0,2.46,1.33S468.66,282.25,468.75,281.06Z"/><path class="cls-19" d="M462.83,283c-.94.69-2.73,9.45-2.73,10.7s2.46,6.9,2.46,6.9l1.63-.86-1.35-6.48s1.2-5.1,1.56-6.8S462.83,283,462.83,283Z"/><path class="cls-21" d="M464.19,299.74s1,1.29,1.08,1.55-.57,0-.57,0,.62,1.72.42,1.91-1-.19-1-.19a1.82,1.82,0,0,1-.76-.45,18.19,18.19,0,0,1-.77-2Z"/><path class="cls-21" d="M479.52,295.2a15.33,15.33,0,0,1,1.89.57c.24.15-.48.3-.48.3s1.43,1.13,1.37,1.39-1,.39-1,.39a1.76,1.76,0,0,1-.88,0c-.33-.14-2.2-1.32-2.2-1.32Z"/><path class="cls-18" d="M466.44,278l1.35-2.56a4.4,4.4,0,0,0,3.07,4.1,12.87,12.87,0,0,0,.43-3.91,2.49,2.49,0,0,0-.26-1.15,2.38,2.38,0,0,0-1.37-.91,5.61,5.61,0,0,0-4.15.1,1.26,1.26,0,0,0-.65.57c-.36.87.74,1.29.94,2,.07.25,0,.52.06.78S466.44,278,466.44,278Z"/><g class="cls-1"><path class="cls-50" d="M464.49,318.34l-.06-21.58,36.72-21.2.06,21.58-36.72,21.2M464.42,294v-2.87l36.73-21.2v2.87L464.42,294m38.21-28.41-39.74,22.95a3.33,3.33,0,0,0-1.5,2.6l.09,30.66c0,1,.68,1.35,1.51.86l34.24-19.77,2.61,2.86v-4.35l2.9-1.68a3.31,3.31,0,0,0,1.5-2.6l-.09-30.66c0-1-.68-1.34-1.51-.87"/><polyline class="cls-51" points="501.14 269.94 464.41 291.14 464.42 294.01 501.14 272.81 501.14 269.94"/><path class="cls-51" d="M481,300.46v-4.89l1.85.16,1.84.16-1.84,2.28L481,300.46m20.17-24.9-36.72,21.2.06,21.58,36.72-21.2-.06-21.58"/><polyline class="cls-20" points="480.97 295.57 480.98 298.01 480.98 300.46 482.82 298.17 484.66 295.89 482.81 295.73 480.97 295.57"/></g><g class="cls-1"><path class="cls-52" d="M453.11,281.24l-17,9.84a3.81,3.81,0,0,0-1.74,3l0,11.94c0,1.11.79,1.56,1.75,1l17.05-9.84a3.81,3.81,0,0,0,1.74-3l0-11.94c0-1.11-.79-1.56-1.76-1"/></g><g class="cls-1"><polyline class="cls-20" points="443.76 292.15 443.77 294.99 443.78 297.82 445.91 295.17 448.04 292.52 445.9 292.34 443.76 292.15"/></g><g class="cls-1"><path class="cls-53" d="M459.84,332.2a2.31,2.31,0,0,1,1-1.32c.44-.26.82-.16,1,.2l24.13-13.94c.21-.12.39,0,.39.22a.84.84,0,0,1-.38.66L461.79,332a2.36,2.36,0,0,1-1,1.32c-.45.26-.83.16-1-.2l-3.59,2.08c-.21.12-.38,0-.38-.22a.84.84,0,0,1,.38-.66l3.59-2.07m26.64-18.56-30.82,17.79a5.24,5.24,0,0,0-2.37,4.1v1.77c0,1.51,1.07,2.12,2.38,1.36l30.82-17.8a5.17,5.17,0,0,0,2.37-4.1V315c0-1.51-1.07-2.11-2.39-1.35"/><path class="cls-20" d="M460.81,330.88a2.31,2.31,0,0,0-1,1.32,1.61,1.61,0,0,0-.08.48.9.9,0,0,0,.08.39c.15.36.53.46,1,.2a2.36,2.36,0,0,0,1-1.32,2,2,0,0,0,.07-.48.9.9,0,0,0-.08-.39c-.15-.36-.53-.46-1-.2"/></g><path class="cls-4" d="M358.94,141.8l-14.16-8.17a2.5,2.5,0,0,0-2.29,0l-14.08,8.17c-.63.37-.62,1,0,1.33l14.16,8.18a2.58,2.58,0,0,0,2.3,0L359,143.13A.7.7,0,0,0,358.94,141.8Z"/><g class="cls-1"><path class="cls-5" d="M358.94,123.34a.7.7,0,0,1,0,1.33l-14.07,8.17a2.52,2.52,0,0,1-2.3,0l-14.16-8.17c-.63-.37-.64-1,0-1.33l14.08-8.18a2.5,2.5,0,0,1,2.29,0Z"/><path class="cls-54" d="M343.73,131.85a1.09,1.09,0,0,1-.51-.1L329.79,124l13.33-7.75a1.2,1.2,0,0,1,.51-.1,1.12,1.12,0,0,1,.52.11L357.57,124l-13.33,7.74A1.06,1.06,0,0,1,343.73,131.85Z"/><path class="cls-7" d="M359.42,126.54a.43.43,0,0,1,0-.07s0,0,0,0v0a.5.5,0,0,0,0-.16l-.09-2.24a.5.5,0,0,1,0,.16v0a.93.93,0,0,1-.05.1l0,.07-.08.09-.07.07-.19.14-14.07,8.17-.26.13a.29.29,0,0,0-.1,0l-.2.05-.15,0-.14,0h-.31l-.28,0h-.07l-.2,0L343,133l-.1,0-.28-.13-14.16-8.17a.83.83,0,0,1-.48-.67l.09,2.24a.83.83,0,0,0,.48.67l14.16,8.17a1.43,1.43,0,0,0,.28.13l.1,0,.21.06h0l.17,0h.06l.27,0h.32l.15,0,.14,0h0l.19,0,.1,0,.26-.13L359,126.91l.17-.12v0l.08-.07.07-.08A.56.56,0,0,1,359.42,126.54Z"/></g><g class="cls-55"><path class="cls-56" d="M71.21,352.23c5.38,3.11,5.41,8.16.05,11.27s-14.05,3.11-19.43,0-5.42-8.15-.07-11.26S65.82,349.12,71.21,352.23Z"/></g><g class="cls-55"><path class="cls-56" d="M103.36,356.5c5.38,3.11,5.41,8.16.06,11.27s-14.06,3.11-19.44,0-5.42-8.15-.07-11.26S98,353.39,103.36,356.5Z"/></g><g class="cls-1"><path class="cls-7" d="M78.07,352.23c0,.15,0,.29,0,.44l-.09.35c0,.14-.07.27-.12.41s-.09.22-.14.34-.13.28-.2.42a3.21,3.21,0,0,1-.19.31c-.1.16-.2.32-.32.48s-.23.3-.36.45l-.09.11c-.18.19-.38.38-.58.57l-.43.35c-.12.1-.24.2-.38.3l-.5.33c-.17.11-.33.23-.52.34-.41.23-.85.45-1.29.65l-.4.17c-.35.15-.71.28-1.08.41l-.39.13c-.23.08-.47.14-.71.21l-.54.14-.76.16-.52.11c-.51.09-1,.16-1.56.22l-.49,0-.93.06-.59,0h-.76l-.63,0-.7,0-.63-.05-.69-.08-.61-.08-.73-.13-.57-.11-.85-.21-.48-.13c-.5-.15-1-.31-1.47-.5-.24-.09-.47-.19-.69-.29l-.36-.16c-.35-.16-.68-.34-1-.52A8.64,8.64,0,0,1,51.17,354a5,5,0,0,1-.57-2.28v3.1c0,2.05,1.34,4.11,4,5.67.33.19.66.36,1,.53l.36.15c.2.09.4.19.62.27l.07,0c.48.18,1,.35,1.48.49l.11,0,.35.09c.29.08.57.15.86.21l.23.06c.11,0,.23,0,.34.06l.73.12.29.05.32,0,.69.08.33,0,.3,0,.7,0H65.2l.22,0q.47,0,.93-.06l.38,0,.11,0c.53-.05,1-.13,1.56-.22h.08c.15,0,.29-.06.44-.09l.76-.16.54-.15.71-.2.15,0a2.5,2.5,0,0,0,.25-.09c.36-.12.72-.26,1.07-.41l.4-.16c.45-.21.88-.42,1.29-.66l.17-.1c.13-.07.23-.16.35-.23s.34-.22.5-.34.26-.2.39-.3.29-.23.42-.35a.5.5,0,0,0,.08-.07c.18-.16.34-.33.5-.5l.09-.1.27-.32.09-.14a4,4,0,0,0,.32-.48,1.43,1.43,0,0,0,.14-.2s0-.07,0-.1.14-.29.2-.43l.12-.25s0-.06,0-.09.08-.27.12-.41.06-.18.08-.27a.22.22,0,0,1,0-.08c0-.14,0-.29,0-.43s0-.19,0-.28v-3.23C78.1,352,78.08,352.1,78.07,352.23Z"/><path class="cls-57" d="M74,346.16c5.39,3.11,5.42,8.15.06,11.27s-14,3.1-19.44,0-5.41-8.16-.06-11.26S68.65,343.05,74,346.16Z"/><path class="cls-7" d="M69.47,348.22a.39.39,0,0,1,.22.3.44.44,0,0,1-.24.32l-.47.27c.69.54,1,1.16.73,1.73l-.17.17-.13.07a1.45,1.45,0,0,1-.47.07,1.16,1.16,0,0,1-.55-.15c-.15-.09-.25-.18-.27-.28a1.51,1.51,0,0,0-.2-.65,2,2,0,0,0-.68-.57,3.38,3.38,0,0,0-1.27-.41,2,2,0,0,0-1.19.21c-.36.21-.4.46-.21.76a4,4,0,0,0,.9,1,2.84,2.84,0,0,1,.91,1.36c.09.5-.17.94-.8,1.31a4.82,4.82,0,0,1-2.24.56,6.26,6.26,0,0,1-2.44-.45l-.52.31a1.17,1.17,0,0,1-1.06,0,.33.33,0,0,1,0-.63l.51-.3a2.24,2.24,0,0,1-.84-1.11,1.25,1.25,0,0,1,.11-1.07.65.65,0,0,1,.26-.23l.22-.1a1.45,1.45,0,0,1,.63,0,1.1,1.1,0,0,1,.36.11c.19.11.24.29.21.56-.22.53.07,1,.82,1.47a3.26,3.26,0,0,0,1.34.43,2.2,2.2,0,0,0,1.32-.22c.35-.2.45-.45.31-.74a2.43,2.43,0,0,0-.56-.66l-.12-.12a3.17,3.17,0,0,1-1.16-1.55c-.11-.54.14-1,.78-1.37a4.4,4.4,0,0,1,2.14-.51,6,6,0,0,1,2.27.43l.47-.27a1.13,1.13,0,0,1,.56-.13A1.15,1.15,0,0,1,69.47,348.22Z"/></g><g class="cls-1"><path class="cls-7" d="M77,346.06a3.34,3.34,0,0,1,0,.43c0,.12-.06.23-.09.35s-.07.28-.12.41-.09.22-.14.34-.12.28-.2.43-.12.2-.18.3-.21.32-.33.48-.23.3-.36.45l-.09.11c-.18.19-.37.38-.58.57s-.28.23-.42.35l-.39.3-.49.33-.52.34a14.32,14.32,0,0,1-1.3.65l-.39.17c-.35.15-.71.28-1.08.41l-.4.13c-.23.08-.47.14-.71.21l-.54.14-.76.16-.51.11c-.52.09-1,.16-1.57.22l-.49,0c-.3,0-.61.05-.93.06l-.59,0H63l-.62,0-.7,0-.64-.06-.68-.07-.62-.09-.73-.13-.57-.11-.85-.21-.47-.13c-.51-.15-1-.31-1.48-.5l-.69-.29-.36-.16c-.34-.16-.68-.34-1-.52a8.67,8.67,0,0,1-3.5-3.39,5,5,0,0,1-.56-2.28v3.1c0,2.05,1.35,4.11,4.06,5.67.32.19.66.36,1,.53l.36.15c.21.09.41.19.62.27l.07,0c.48.18,1,.35,1.48.5l.12,0,.35.08c.28.08.57.15.85.21l.23.06c.11,0,.23,0,.34.06l.73.12.29.05.33,0,.68.08.33,0,.31,0,.7,0,.35,0h1.4l.23,0q.47,0,.93-.06l.37,0,.11,0c.53-.05,1-.12,1.57-.22h.07c.15,0,.3-.06.44-.09l.77-.16.54-.15.7-.2.16,0,.24-.1c.37-.12.73-.26,1.08-.41l.39-.16c.45-.21.89-.42,1.3-.66l.16-.1c.13-.07.24-.16.36-.23l.49-.33c.14-.1.26-.21.39-.31s.29-.23.42-.35l.09-.07c.17-.16.34-.33.49-.5l.09-.1.27-.31c0-.05.06-.1.09-.14a5.25,5.25,0,0,0,.33-.49l.13-.2s0-.07,0-.1a4.14,4.14,0,0,0,.2-.43,1.92,1.92,0,0,0,.12-.25s0-.06,0-.08a3.31,3.31,0,0,0,.12-.42,2.76,2.76,0,0,0,.08-.27.22.22,0,0,0,0-.08,3.15,3.15,0,0,0,0-.43,2.66,2.66,0,0,0,0-.28v-3.23C77,345.79,77,345.92,77,346.06Z"/><path class="cls-58" d="M72.94,340c5.38,3.11,5.41,8.16.06,11.27s-14.06,3.11-19.44,0-5.42-8.15-.07-11.26S67.55,336.87,72.94,340Z"/><path class="cls-7" d="M68.36,342a.39.39,0,0,1,.22.31.4.4,0,0,1-.24.31l-.47.27c.7.54,1,1.16.73,1.73l-.17.17-.13.07a1.43,1.43,0,0,1-.46.07,1.17,1.17,0,0,1-.56-.15.48.48,0,0,1-.27-.28,1.39,1.39,0,0,0-.2-.65,2,2,0,0,0-.68-.57,3.33,3.33,0,0,0-1.27-.41,2.09,2.09,0,0,0-1.19.21c-.36.21-.4.46-.21.76a4,4,0,0,0,.9,1,2.92,2.92,0,0,1,.92,1.36c.08.51-.18.94-.81,1.31a4.66,4.66,0,0,1-2.23.56,6.08,6.08,0,0,1-2.44-.45l-.53.31a1.14,1.14,0,0,1-1.06,0,.33.33,0,0,1,0-.63l.52-.3a2.22,2.22,0,0,1-.85-1.11,1.25,1.25,0,0,1,.12-1.07.7.7,0,0,1,.25-.23l.23-.1a1.41,1.41,0,0,1,.62,0,1.1,1.1,0,0,1,.36.11.49.49,0,0,1,.21.56c-.21.53.07,1,.82,1.47a3.26,3.26,0,0,0,1.34.43,2.21,2.21,0,0,0,1.33-.22c.34-.2.45-.45.3-.74a2.11,2.11,0,0,0-.56-.66l-.11-.12a3,3,0,0,1-1.16-1.55c-.12-.54.13-1,.77-1.37a4.42,4.42,0,0,1,2.14-.5,6,6,0,0,1,2.27.42l.47-.27a1.21,1.21,0,0,1,1.09,0Z"/></g><g class="cls-1"><path class="cls-7" d="M110.71,357.27c0,.15,0,.29,0,.43l-.09.36c0,.13-.07.27-.12.41s-.09.22-.14.33-.13.29-.2.43l-.19.31c-.1.16-.2.32-.32.48s-.23.3-.36.45l-.09.11c-.18.19-.38.38-.58.56s-.28.24-.43.35a3.93,3.93,0,0,1-.38.31l-.5.33c-.17.11-.33.23-.52.33a14.21,14.21,0,0,1-1.29.66l-.4.17c-.35.14-.71.28-1.08.41l-.39.13-.71.2-.54.15-.76.16-.52.11q-.77.14-1.56.21l-.49,0-.93.07H96.73l-.63,0-.7,0-.63-.05-.69-.08c-.2,0-.41-.05-.61-.09s-.49-.08-.73-.12l-.57-.12c-.29-.06-.57-.13-.85-.21l-.48-.12c-.5-.15-1-.32-1.47-.5a7.17,7.17,0,0,1-.69-.3l-.36-.15c-.35-.16-.68-.34-1-.53a8.56,8.56,0,0,1-3.49-3.38,5,5,0,0,1-.57-2.29v3.11c0,2.05,1.34,4.1,4,5.67.33.19.66.36,1,.52l.36.16.62.27.07,0c.48.19,1,.35,1.48.5l.11,0,.35.09.86.21.23.05c.11,0,.23,0,.34.06l.73.13.29.05.32,0,.69.07.33,0,.3,0,.7,0,.35,0h1.41l.22,0,.93-.06.38,0h.11c.53-.06,1.05-.13,1.56-.22h.08l.44-.09.76-.17.54-.14.71-.2.15-.05.25-.09c.36-.13.72-.26,1.07-.41l.4-.17a13,13,0,0,0,1.29-.65l.17-.1.35-.24c.17-.11.34-.21.5-.33l.39-.3c.14-.12.29-.23.42-.35l.08-.07c.18-.16.34-.33.5-.5l.09-.11.27-.31.09-.14c.12-.16.22-.32.32-.48a2.43,2.43,0,0,0,.14-.2s0-.07,0-.1.14-.29.2-.43l.12-.25s0-.06,0-.09.08-.27.12-.41.06-.18.08-.28a.17.17,0,0,1,0-.07c0-.14,0-.29,0-.43s0-.19,0-.29v-3.22A2.71,2.71,0,0,1,110.71,357.27Z"/><path class="cls-59" d="M106.69,351.2c5.39,3.11,5.42,8.15.06,11.26s-14,3.11-19.44,0-5.41-8.15-.06-11.26S101.3,348.09,106.69,351.2Z"/><path class="cls-7" d="M102.12,353.26a.39.39,0,0,1,.22.3.41.41,0,0,1-.24.31l-.47.28c.69.54,1,1.16.73,1.73l-.17.17-.13.07a1.78,1.78,0,0,1-.47.07A1.16,1.16,0,0,1,101,356a.5.5,0,0,1-.27-.28,1.56,1.56,0,0,0-.2-.66,2,2,0,0,0-.68-.56,3.22,3.22,0,0,0-1.27-.41,1.92,1.92,0,0,0-1.19.21.48.48,0,0,0-.21.76,4.17,4.17,0,0,0,.9,1,2.82,2.82,0,0,1,.91,1.35c.09.51-.17.95-.8,1.32a4.82,4.82,0,0,1-2.24.56,6.26,6.26,0,0,1-2.44-.45l-.52.31a1.17,1.17,0,0,1-1.06,0c-.3-.18-.32-.46,0-.63l.51-.3a2.28,2.28,0,0,1-.84-1.11,1.24,1.24,0,0,1,.11-1.07.65.65,0,0,1,.26-.23l.22-.1a1.45,1.45,0,0,1,.63,0,1.13,1.13,0,0,1,.36.1.51.51,0,0,1,.21.56c-.22.53.07,1.05.82,1.48a3.41,3.41,0,0,0,1.34.43,2.2,2.2,0,0,0,1.32-.22c.35-.2.45-.45.31-.74a2.43,2.43,0,0,0-.56-.66l-.12-.12A3.18,3.18,0,0,1,95.37,355c-.11-.53.14-1,.78-1.36a4.4,4.4,0,0,1,2.14-.51,6,6,0,0,1,2.27.43l.47-.27a1,1,0,0,1,.56-.13A1.07,1.07,0,0,1,102.12,353.26Z"/></g><path class="cls-4" d="M569.57,315.18c-5.38-3.11-14.09-3.1-19.44,0s-5.32,8.15.06,11.26,14.09,3.11,19.44,0S575,318.29,569.57,315.18Z"/><g class="cls-1"><path class="cls-7" d="M574.35,315.74a3.29,3.29,0,0,1-.05.44c0,.11-.06.23-.09.35s-.07.27-.12.41-.09.22-.14.33a3.36,3.36,0,0,1-.2.43,3.14,3.14,0,0,1-.18.31q-.15.24-.33.48t-.36.45l-.09.11c-.18.19-.37.38-.58.57l-.42.34c-.13.11-.25.21-.39.31l-.49.33c-.18.11-.34.23-.53.33a13,13,0,0,1-1.29.66l-.39.17c-.35.14-.71.28-1.08.41l-.4.13c-.23.08-.47.14-.71.2s-.35.11-.54.15l-.76.16-.51.11c-.52.09-1,.16-1.57.21l-.49.05-.93.06h-1.35l-.62,0-.7,0-.64-.05-.68-.08-.62-.08-.73-.13-.57-.12c-.29-.06-.57-.13-.85-.21l-.47-.12c-.51-.15-1-.31-1.48-.5l-.69-.29-.36-.16c-.34-.16-.68-.34-1-.52a8.67,8.67,0,0,1-3.5-3.39,5,5,0,0,1-.56-2.28v3.1c0,2.05,1.35,4.1,4.06,5.67.32.19.66.36,1,.53l.36.15c.21.09.41.19.62.27l.07,0c.48.18,1,.35,1.48.49l.12,0a3.58,3.58,0,0,0,.35.09l.85.21.23,0c.11,0,.23,0,.34.06l.73.13.29.05.33,0,.68.07.33,0,.31,0,.7,0h1.75l.23,0q.46,0,.93-.06l.37,0,.11,0c.53-.06,1-.13,1.57-.22h.07l.44-.09.77-.17.54-.14.7-.2.16-.05.24-.09c.37-.12.73-.26,1.08-.41l.39-.17a13.13,13.13,0,0,0,1.3-.65l.16-.1.36-.24a4.2,4.2,0,0,0,.49-.33l.39-.3c.14-.12.29-.23.42-.35l.09-.07c.17-.16.34-.33.49-.5l.09-.1c.09-.11.19-.21.27-.32a.67.67,0,0,0,.09-.14q.18-.24.33-.48l.13-.2s0-.07,0-.1a4.14,4.14,0,0,0,.2-.43c0-.08.09-.17.12-.25s0-.06,0-.09a106.59,106.59,0,0,1,.2-.68.22.22,0,0,0,0-.08,3.15,3.15,0,0,0,.05-.43c0-.1,0-.19,0-.28v-3.23C574.38,315.47,574.36,315.61,574.35,315.74Z"/><path class="cls-60" d="M570.33,309.67c5.38,3.11,5.41,8.15,0,11.26s-14,3.11-19.43,0-5.42-8.16-.07-11.26S564.94,306.56,570.33,309.67Z"/><path class="cls-7" d="M565.75,311.73a.39.39,0,0,1,.22.3.41.41,0,0,1-.24.32l-.47.27c.7.54,1,1.16.73,1.73l-.17.17-.13.07a1.77,1.77,0,0,1-.46.07,1.17,1.17,0,0,1-.56-.15c-.15-.09-.25-.18-.27-.28a1.35,1.35,0,0,0-.2-.65,1.83,1.83,0,0,0-.68-.57,3.33,3.33,0,0,0-1.27-.41,1.94,1.94,0,0,0-1.19.21.48.48,0,0,0-.21.76,4.17,4.17,0,0,0,.9,1,2.85,2.85,0,0,1,.92,1.35c.08.51-.18.95-.81,1.32a4.78,4.78,0,0,1-2.23.56,6.26,6.26,0,0,1-2.44-.45l-.53.31a1.17,1.17,0,0,1-1.06,0c-.3-.18-.31-.45,0-.63l.52-.3a2.31,2.31,0,0,1-.85-1.11,1.21,1.21,0,0,1,.12-1.07.62.62,0,0,1,.25-.23l.23-.1a1.41,1.41,0,0,1,.62,0,.9.9,0,0,1,.36.11.48.48,0,0,1,.21.55c-.21.53.07,1.05.82,1.48a3.41,3.41,0,0,0,1.34.43,2.21,2.21,0,0,0,1.33-.22c.34-.2.45-.45.3-.74a2.11,2.11,0,0,0-.56-.66l-.11-.12a3.06,3.06,0,0,1-1.16-1.56c-.12-.53.13-1,.77-1.36a4.43,4.43,0,0,1,2.14-.51,6,6,0,0,1,2.27.43l.47-.27a1.21,1.21,0,0,1,1.09,0Z"/></g></g></g></g></svg>