<svg width="99" height="32" viewBox="0 0 499 160" fill="none" xmlns="http://www.w3.org/2000/svg"><path fill-rule="evenodd" clip-rule="evenodd" d="M0 30h498.757v100H0V30z" fill="#fff"/><path fill-rule="evenodd" clip-rule="evenodd" d="M6.07 54.757h486.58v69.165H6.07V54.757z" fill="#003380"/><path d="M492.649 35.515H6.099v20.364h179.786l-3.393 12.822a64.383 64.383 0 00-.993 3.793 24.578 24.578 0 00-.614 3.764c-.779-2.557-2.143-4.514-4.086-5.872-1.928-1.278-4.478-1.957-7.628-1.957-6.436 0-11.708 2.25-15.779 6.829-4.1 4.535-6.864 9.486-8.35 14.928a.353.353 0 01-.05.122c-.036.014-.043.071-.043.121-.064.272-.136.564-.186.829a36.976 36.976 0 00-.742 4.178 20.833 20.833 0 00-.236 3.086c0 4 1.05 7.314 3.171 9.964 2.115 2.715 5.679 4.029 10.693 4.029a20.44 20.44 0 008.707-1.929c2.765-1.328 5.193-3.285 7.307-5.921l-1.814 7.257h10.814c.308-1.393.615-2.764.929-4.129.343-1.4.671-2.778 1.043-4.178.114-.7.278-1.364.45-2.072.157-.685.35-1.364.536-2.05l11.685-43.6h295.35V35.516h-.007zm-315.4 51.728c-.036.422-.071.808-.136 1.208 0 .403-.046.806-.135 1.2-.093.414-.186.843-.307 1.221-.15.407-.258.8-.415 1.243-.157.443-.285.85-.414 1.236-1.071 2.657-2.679 5.064-4.857 7.264a10.7 10.7 0 01-7.914 3.271c-2.565 0-4.358-.828-5.4-2.493a10.486 10.486 0 01-1.579-5.714c0-.393.021-.778.057-1.236.029-.428.064-.842.129-1.242.071-.422.128-.843.221-1.265.1-.428.193-.85.3-1.243.136-.364.243-.721.343-1.078.071-.374.204-.734.393-1.064.95-2.765 2.443-5.272 4.471-7.522 2.015-2.236 4.657-3.371 7.943-3.371 2.757 0 4.657.828 5.743 2.493 1.064 1.664 1.6 3.635 1.6 5.857a11.8 11.8 0 01-.043 1.236z" fill="#B9C409"/><path d="M96.763 68.986a13.378 13.378 0 00-10.757 3.2 29.23 29.23 0 00-6.314 7.8l2.6-10.779H71.913l-.707 3.222a43.765 43.765 0 01-.828 3.143c-.043.243-.1.464-.115.685-.028.25-.085.45-.128.63a54.068 54.068 0 00-.679 2.57c-.2.88-.4 1.743-.585 2.6l-8.043 29.851H72.27L77.013 94.3l.186-.871a4.52 4.52 0 01.257-.936c.114-.343.2-.657.264-.935a27.285 27.285 0 014.843-8.586c2.136-2.636 5.193-3.929 9.186-3.929.664 0 1.322.029 1.957.143.672.164 1.279.271 1.879.457l2.778-10.35c-.535-.121-1.057-.2-1.6-.307zm27.979-.893c-6.907 0-12.8 2.129-17.686 6.407-4.886 4.279-8.193 9.657-9.935 16.093a33.256 33.256 0 00-.8 3.843 24.05 24.05 0 00-.272 3.579c0 4.785 1.55 8.457 4.7 11.035 3.129 2.6 7.621 3.9 13.543 3.9 1.557 0 3.128-.085 4.728-.278a47.262 47.262 0 004.836-.757 28.335 28.335 0 003.165-.729c1.042-.343 2.107-.671 3.164-1.078l2.407-9.586a58.11 58.11 0 01-7.4 3.064 23.82 23.82 0 01-7.507 1.264c-3.115 0-5.622-.728-7.565-2.235-1.942-1.407-2.907-3.55-2.907-6.286 0-.357.029-.736.05-1.043.029-.357.079-.728.129-1.15h29.786c.064-.207.121-.428.2-.629.1-.214.157-.442.214-.657a.989.989 0 00.157-.292c.014-.1.071-.193.114-.293.129-.293.257-.593.386-.929a5.4 5.4 0 00.25-1c.343-1.371.643-2.714.836-4.028.208-1.293.32-2.599.335-3.908 0-4.121-1.171-7.557-3.478-10.257-2.336-2.721-6.157-4.05-11.45-4.05zm4.143 16.45a32.775 32.775 0 01-.3 1.922h-19.307c1.014-2.8 2.642-5.293 4.864-7.407a11.41 11.41 0 018.186-3.193c2.457 0 4.185.678 5.192 2.035 1.036 1.343 1.536 2.943 1.536 4.879-.021.591-.078 1.18-.171 1.764z" fill="#B9C409"/><path fill-rule="evenodd" clip-rule="evenodd" d="M400.557 101.458a27.513 27.513 0 004.936 2.15c1.7.592 3.557.864 5.514.864.543 0 1.114-.007 1.707-.072.593-.05 1.214-.157 1.871-.335a10.062 10.062 0 003.515-1.522 4.75 4.75 0 002.135-2.878c.05-.121.081-.249.093-.379v-.4c0-.928-.443-1.671-1.314-2.243-1-.649-2.06-1.201-3.164-1.65-.543-.214-1.079-.428-1.657-.6-.565-.25-1.122-.471-1.65-.764a20.003 20.003 0 01-5.372-3.2c-1.607-1.3-2.414-3.243-2.414-5.786 0-.436.043-.957.1-1.5a8.66 8.66 0 01.364-1.686c.964-3.628 2.943-6.407 5.979-8.414a27.379 27.379 0 019.664-3.993c1.121-.2 2.257-.328 3.336-.428a29.05 29.05 0 018.578.285c1.772.3 3.493.693 5.15 1.18l-3.028 8.3a34.86 34.86 0 00-4.35-1.208 22.976 22.976 0 00-6.379-.386c-.656.053-1.309.137-1.957.25-1.19.302-2.338.753-3.414 1.343-.511.267-.958.64-1.311 1.096-.354.454-.606.98-.739 1.54a.705.705 0 00-.1.393v.392c0 .88.443 1.565 1.35 2.115a20.775 20.775 0 003.221 1.5c.522.236 1.079.428 1.65.585.543.193 1.107.393 1.657.636 2 .736 3.857 1.757 5.486 3.072 1.636 1.278 2.45 3.25 2.45 5.878l-.164 1.643a10.17 10.17 0 01-.357 1.822 15.182 15.182 0 01-6.522 9.121c-3.278 2.143-6.764 3.471-10.45 4-.829.167-1.67.277-2.514.329-.839.058-1.68.084-2.522.078-2.2 0-4.314-.15-6.392-.5a72.703 72.703 0 01-6.022-1.293l3.036-9.335zM383.95 90.693c.221-.878.407-1.757.507-2.635.15-.879.193-1.808.193-2.736 0-2.422-.6-4.493-1.786-6.343-1.186-1.8-3.243-2.722-6.164-2.722-3.286 0-6.107 1.172-8.493 3.515a23.263 23.263 0 00-5.357 7.7c-.232.477-.428.972-.586 1.478-.15.465-.279.922-.407 1.372-.114.457-.2.943-.307 1.371a23.15 23.15 0 00-.229 1.407c-.121.508-.164 1-.214 1.465-.033.46-.047.923-.043 1.385.043 2.343.686 4.4 1.871 6.215 1.2 1.757 3.308 2.664 6.265 2.664 3.221 0 5.978-1.157 8.314-3.414 2.314-2.279 4.064-4.793 5.271-7.572.222-.521.458-1.035.672-1.607.207-.5.364-1.036.493-1.543zm11.793.243A28.851 28.851 0 01385.1 106.9c-5.286 4.036-11.415 6.05-18.322 6.05-5.714 0-10.107-1.435-13.193-4.292-3.057-2.829-4.592-6.672-4.592-11.515 0-1.021.1-2.128.264-3.278.164-1.129.421-2.3.7-3.536a29.246 29.246 0 0110.614-16.086 29.122 29.122 0 0118.279-6.15c5.721 0 10.135 1.507 13.214 4.472 3.114 2.993 4.636 6.9 4.564 11.743 0 1.021-.071 2.092-.207 3.264a32.358 32.358 0 01-.678 3.364zm-65.693-.85c.178-.7.3-1.379.385-2.1.108-.686.158-1.343.158-2.057 0-2.172-.572-4.121-1.715-5.8-1.114-1.714-3.007-2.536-5.607-2.536-3.221 0-5.907 1.093-8.014 3.343a20.164 20.164 0 00-4.514 7.329c-.129.285-.222.578-.322.871-.093.293-.143.586-.207.879a16.18 16.18 0 00-.729 4.914c0 2.121.515 3.978 1.586 5.6 1.036 1.6 2.829 2.386 5.4 2.386 3.043 0 5.65-1.05 7.864-3.229 2.2-2.15 3.843-4.5 4.915-7.1.178-.443.321-.907.443-1.3l.357-1.2zM347.014 69.3l-10 37.415c-2.014 7.493-5.386 13.25-10.029 17.278l-.642.5h-32.465l2.565-6.985c1.885.992 3.885 1.792 5.942 2.471a22.281 22.281 0 008.308.9 18.676 18.676 0 001.742-.257 17.147 17.147 0 005.472-1.864c1.771-.929 3.3-2.258 4.543-3.922a14.94 14.94 0 001.843-3.028 56.413 56.413 0 001.371-3.25c.291-.894.563-1.795.814-2.7a58.46 58.46 0 01.715-2.486 25.293 25.293 0 01-7.415 5.964 20.9 20.9 0 01-8.771 2.564h-.793c-4.714 0-8.093-1.335-10.114-4.028-2.007-2.643-3.043-5.936-3.043-9.764.071-.929.143-1.893.236-2.922.079-1.023.241-2.039.485-3.036.057-.293.143-.593.222-.957.085-.335.164-.7.214-1.021a37.686 37.686 0 018.214-15c3.993-4.514 9.215-6.757 15.65-6.757 3.107 0 5.715.621 7.822 1.807 2.114 1.221 3.493 3.171 4.15 5.871l2.057-6.807h10.907v.014zm-68.721 23.2c-.229-.05-.458-.05-.679-.05h-5.086c-1.09.033-2.178.13-3.257.293a20.02 20.02 0 00-6.343 1.907c-1.964.979-3.293 2.643-3.921 4.929a2.69 2.69 0 00-.15.686 5.774 5.774 0 00-.043.685c0 1.322.543 2.343 1.657 3.05a6.634 6.634 0 003.872 1.1c3.65 0 6.628-1.271 8.985-3.792 2.343-2.515 3.979-5.3 4.865-8.272 0-.143.007-.228.064-.314a1.04 1.04 0 00.036-.222zm-4.636 19.415l1.507-6.379a20.656 20.656 0 01-5.764 4.572 19.52 19.52 0 01-6.672 2.15c-.529.128-1.07.2-1.614.214-.521.007-1.064.036-1.593.036-3.643 0-6.628-.765-8.928-2.279-2.329-1.536-3.472-3.871-3.408-7.029-.008-1.313.17-2.622.529-3.885 1.179-4.415 3.55-7.636 7.043-9.586a32.387 32.387 0 0111.186-3.793 178.85 178.85 0 013.935-.407 71.177 71.177 0 013.85-.107c.515 0 1.043 0 1.55.035.703.064 1.409.088 2.115.072.171.093.357.093.55.093.335 0 .685 0 1.021.028.3.022.657.036 1.036.036.152-.629.286-1.263.4-1.9.09-.567.136-1.14.135-1.714 0-1.965-.671-3.422-1.964-4.357-1.321-.979-3.293-1.443-5.893-1.443a24.736 24.736 0 00-5.643.693c-1.632.43-3.234.972-4.792 1.621a30.548 30.548 0 00-4.5 2.35l2.242-9.571c.886-.343 1.765-.665 2.665-.893.893-.279 1.785-.507 2.678-.743 1.786-.443 3.586-.8 5.415-1a50.491 50.491 0 015.314-.293h1.064c.372 0 .722.007 1.064.093 2.565.107 5.008.614 7.329 1.571 2.336.915 4.05 2.443 5.1 4.558a7.18 7.18 0 01.629 2.007c.128.75.178 1.45.178 2.228 0 .614-.043 1.272-.086 1.95a48.059 48.059 0 01-.264 2c-.193.693-.336 1.4-.486 2.014-.171.672-.328 1.336-.492 1.936-1.158 4.229-2.236 8.4-3.315 12.593a308.29 308.29 0 00-2.957 12.536h-10.164v-.007zm-42.014-21.222c.117-.351.205-.712.264-1.078.064-.386.1-.772.193-1.165.107-.585.193-1.157.25-1.664a16.6 16.6 0 00.1-1.607c0-2.1-.507-3.857-1.479-5.322-.978-1.464-2.807-2.2-5.414-2.2-3.207 0-5.9 1.13-8.086 3.372a22.276 22.276 0 00-4.857 7.421 22.973 22.973 0 00-.829 2.336c-.228.864-.421 1.714-.514 2.557a14.56 14.56 0 00-.178 2.622c0 2.107.5 3.957 1.564 5.493 1.043 1.55 2.871 2.321 5.578 2.321 2.865 0 5.336-.986 7.415-3.029 2.085-2.05 3.707-4.3 4.828-6.7l.672-1.714a17.42 17.42 0 00.493-1.643zm-40.329 33.8l11.557-42.885c.298-1.021.558-2.053.779-3.093.25-1.029.507-2.086.814-3.193.243-1.043.464-2.079.664-3.093.207-1.064.407-2.072.586-3.129h11.007l-1.621 6.743c2.364-2.5 4.943-4.307 7.678-5.571 2.743-1.236 5.665-1.857 8.757-1.857 4.772 0 8.172 1.364 10.193 4.1 2.029 2.735 3.029 6.035 3.029 9.864 0 1.207-.064 2.45-.257 3.714a32.085 32.085 0 01-.793 3.907 38.674 38.674 0 01-8.314 15.529c-4.065 4.636-9.443 6.971-16.186 6.971a15.346 15.346 0 01-7.157-1.635 9.046 9.046 0 01-4.465-5.007 10.488 10.488 0 01-.3 1.6c-.151.558-.289 1.12-.414 1.685-.107.579-.257 1.122-.4 1.657a13.645 13.645 0 01-.486 1.529l-3.25 12.157h-11.421v.007z" fill="#fff"/></svg>