<svg width="49" height="32" viewBox="0 0 246 160" fill="none" xmlns="http://www.w3.org/2000/svg"><g clip-path="url(#clip0)"><path d="M45.502 40C23.032 40 2.655 57.907-.02 79.966c-2.675 22.058 13.345 40 35.78 40 22.437 0 42.882-17.908 45.558-40C83.993 57.873 67.973 40 45.503 40zm14.512 39.966C58.676 90.909 49.79 99.76 38.744 99.76s-18.936-8.85-17.598-19.794C22.484 69.022 32.5 60.172 43.547 60.172s17.77 8.885 16.467 19.794zm175.609-36.158c-.172-1.166-1.132-2.024-2.299-2.024h-26.621c-1.338 0-2.538.72-3.19 1.887l-39.966 73.756a.646.646 0 00.275.892c.103.034.205.069.308.069h18.662c1.338 0 2.573-.721 3.191-1.921l30.189-56.295h.96l3.396 27.547c.035.343-.206.686-.549.72h-10.84c-1.715-.034-3.088 1.338-3.122 3.053 0 .926.378 1.819 1.098 2.402l12.11 10.463a12.925 12.925 0 014.425 8.302l.446 3.705a2.34 2.34 0 002.333 2.058h18.628a.65.65 0 00.651-.652v-.068l-10.085-73.894zM162.998 97.53l-13.344-7.101a3.957 3.957 0 00-4.94.995c-.721.892-1.51 1.818-2.093 2.367-3.945 3.876-8.611 6.038-14.546 6.038-11.423 0-17.873-8.611-17.873-17.53 0-11.321 10.223-22.093 22.505-22.093 5.9 0 10.806 2.573 13.996 6.518a3.944 3.944 0 004.803.995c4.048-1.99 14.923-7.41 15.334-7.582.344-.171.446-.583.309-.892l-.411-.823c-5.867-10.84-17.668-18.388-32.042-18.388-24.94 0-45.831 21.235-45.831 44.837 0 19.795 15.334 35.129 36.123 35.129 15.3 0 29.297-8.37 37.702-20.686.137-.172.343-.549.548-.823.206-.31.103-.72-.171-.927-.034 0-.069-.034-.069-.034z" fill="#3E6ECD"/></g><defs><clipPath id="clip0"><path fill="#fff" d="M0 0h246v160H0z"/></clipPath></defs></svg>